<mxfile host="65bd71144e">
    <diagram id="JRebEt8CLyZ6RTFQB7jr" name="Page-1">
        <mxGraphModel dx="543" dy="792" grid="1" gridSize="10" guides="1" tooltips="1" connect="1" arrows="1" fold="1" page="1" pageScale="1" pageWidth="827" pageHeight="1169" math="0" shadow="0">
            <root>
                <mxCell id="0"/>
                <mxCell id="1" parent="0"/>
                <mxCell id="11" value="" style="strokeWidth=2;html=1;shape=mxgraph.flowchart.annotation_1;align=left;pointerEvents=1;fontStyle=1" parent="1" vertex="1">
                    <mxGeometry x="40" y="100" width="50" height="180" as="geometry"/>
                </mxCell>
                <mxCell id="13" value="" style="strokeWidth=2;html=1;shape=mxgraph.flowchart.annotation_1;align=left;pointerEvents=1;direction=west;" parent="1" vertex="1">
                    <mxGeometry x="60" y="100" width="50" height="180" as="geometry"/>
                </mxCell>
                <mxCell id="20" value="" style="strokeWidth=2;html=1;shape=mxgraph.flowchart.annotation_1;align=left;pointerEvents=1;fontStyle=1" parent="1" vertex="1">
                    <mxGeometry x="540" y="100" width="50" height="180" as="geometry"/>
                </mxCell>
                <mxCell id="21" value="" style="strokeWidth=2;html=1;shape=mxgraph.flowchart.annotation_1;align=left;pointerEvents=1;direction=west;" parent="1" vertex="1">
                    <mxGeometry x="560" y="100" width="50" height="180" as="geometry"/>
                </mxCell>
                <mxCell id="25" value="" style="strokeWidth=2;html=1;shape=mxgraph.flowchart.annotation_1;align=left;pointerEvents=1;fontStyle=1" parent="1" vertex="1">
                    <mxGeometry x="790" y="100" width="50" height="180" as="geometry"/>
                </mxCell>
                <mxCell id="26" value="" style="strokeWidth=2;html=1;shape=mxgraph.flowchart.annotation_1;align=left;pointerEvents=1;direction=west;" parent="1" vertex="1">
                    <mxGeometry x="807" y="100" width="50" height="180" as="geometry"/>
                </mxCell>
                <object placeholders="1" c4Type="Relationship" id="27">
                    <mxCell style="endArrow=blockThin;html=1;fontSize=10;fontColor=#404040;strokeWidth=1;endFill=1;strokeColor=#828282;elbow=vertical;metaEdit=1;endSize=14;startSize=14;jumpStyle=arc;jumpSize=16;rounded=0;edgeStyle=orthogonalEdgeStyle;" parent="1" edge="1">
                        <mxGeometry width="240" relative="1" as="geometry">
                            <mxPoint x="610" y="240" as="sourcePoint"/>
                            <mxPoint x="790" y="240" as="targetPoint"/>
                        </mxGeometry>
                    </mxCell>
                </object>
                <object placeholders="1" c4Type="Relationship" id="28">
                    <mxCell style="endArrow=blockThin;html=1;fontSize=10;fontColor=#404040;strokeWidth=1;endFill=1;strokeColor=#828282;elbow=vertical;metaEdit=1;endSize=14;startSize=14;jumpStyle=arc;jumpSize=16;rounded=0;edgeStyle=orthogonalEdgeStyle;" parent="1" edge="1">
                        <mxGeometry width="240" relative="1" as="geometry">
                            <mxPoint x="110" y="120" as="sourcePoint"/>
                            <mxPoint x="290" y="120" as="targetPoint"/>
                        </mxGeometry>
                    </mxCell>
                </object>
                <mxCell id="29" value="&lt;font style=&quot;font-size: 16px;&quot;&gt;Xn&lt;/font&gt;" style="text;html=1;strokeColor=none;fillColor=none;align=center;verticalAlign=middle;whiteSpace=wrap;rounded=0;" parent="1" vertex="1">
                    <mxGeometry x="40" y="110" width="70" height="50" as="geometry"/>
                </mxCell>
                <mxCell id="31" value="&lt;font style=&quot;font-size: 16px;&quot;&gt;Zn&lt;/font&gt;" style="text;html=1;strokeColor=none;fillColor=none;align=center;verticalAlign=middle;whiteSpace=wrap;rounded=0;" parent="1" vertex="1">
                    <mxGeometry x="40" y="230" width="70" height="50" as="geometry"/>
                </mxCell>
                <mxCell id="30" value="&lt;span style=&quot;font-size: 16px;&quot;&gt;Yn&lt;/span&gt;" style="text;html=1;strokeColor=none;fillColor=none;align=center;verticalAlign=middle;whiteSpace=wrap;rounded=0;" parent="1" vertex="1">
                    <mxGeometry x="40" y="170" width="70" height="50" as="geometry"/>
                </mxCell>
                <mxCell id="34" value="" style="strokeWidth=2;html=1;shape=mxgraph.flowchart.annotation_1;align=left;pointerEvents=1;fontStyle=1" parent="1" vertex="1">
                    <mxGeometry x="290" y="100" width="50" height="180" as="geometry"/>
                </mxCell>
                <mxCell id="35" value="" style="strokeWidth=2;html=1;shape=mxgraph.flowchart.annotation_1;align=left;pointerEvents=1;direction=west;" parent="1" vertex="1">
                    <mxGeometry x="310" y="100" width="50" height="180" as="geometry"/>
                </mxCell>
                <mxCell id="36" value="&lt;font style=&quot;font-size: 16px;&quot;&gt;X1 = Xn&lt;/font&gt;" style="text;html=1;strokeColor=none;fillColor=none;align=center;verticalAlign=middle;whiteSpace=wrap;rounded=0;" parent="1" vertex="1">
                    <mxGeometry x="290" y="105" width="70" height="50" as="geometry"/>
                </mxCell>
                <mxCell id="37" value="&lt;font style=&quot;font-size: 16px;&quot;&gt;Z1&lt;/font&gt;" style="text;html=1;strokeColor=none;fillColor=none;align=center;verticalAlign=middle;whiteSpace=wrap;rounded=0;" parent="1" vertex="1">
                    <mxGeometry x="290" y="225" width="70" height="50" as="geometry"/>
                </mxCell>
                <mxCell id="38" value="&lt;span style=&quot;font-size: 16px;&quot;&gt;Y1&lt;/span&gt;" style="text;html=1;strokeColor=none;fillColor=none;align=center;verticalAlign=middle;whiteSpace=wrap;rounded=0;" parent="1" vertex="1">
                    <mxGeometry x="290" y="175" width="70" height="40" as="geometry"/>
                </mxCell>
                <mxCell id="44" value="&lt;font style=&quot;font-size: 16px;&quot;&gt;X2&lt;/font&gt;" style="text;html=1;strokeColor=none;fillColor=none;align=center;verticalAlign=middle;whiteSpace=wrap;rounded=0;" parent="1" vertex="1">
                    <mxGeometry x="540" y="100" width="70" height="50" as="geometry"/>
                </mxCell>
                <mxCell id="45" value="&lt;font style=&quot;font-size: 16px;&quot;&gt;Z2&lt;/font&gt;" style="text;html=1;strokeColor=none;fillColor=none;align=center;verticalAlign=middle;whiteSpace=wrap;rounded=0;" parent="1" vertex="1">
                    <mxGeometry x="540" y="220" width="70" height="50" as="geometry"/>
                </mxCell>
                <mxCell id="46" value="&lt;span style=&quot;font-size: 16px;&quot;&gt;Y2 = Y1&lt;/span&gt;" style="text;html=1;strokeColor=none;fillColor=none;align=center;verticalAlign=middle;whiteSpace=wrap;rounded=0;" parent="1" vertex="1">
                    <mxGeometry x="540" y="170" width="70" height="40" as="geometry"/>
                </mxCell>
                <mxCell id="47" value="&lt;span style=&quot;font-size: 16px;&quot;&gt;Xb&lt;/span&gt;" style="text;html=1;strokeColor=none;fillColor=none;align=center;verticalAlign=middle;whiteSpace=wrap;rounded=0;" parent="1" vertex="1">
                    <mxGeometry x="790" y="100" width="70" height="50" as="geometry"/>
                </mxCell>
                <mxCell id="48" value="&lt;font style=&quot;font-size: 16px;&quot;&gt;Zb=Z2&lt;/font&gt;" style="text;html=1;strokeColor=none;fillColor=none;align=center;verticalAlign=middle;whiteSpace=wrap;rounded=0;" parent="1" vertex="1">
                    <mxGeometry x="790" y="220" width="70" height="50" as="geometry"/>
                </mxCell>
                <mxCell id="49" value="&lt;span style=&quot;font-size: 16px;&quot;&gt;Yb&lt;/span&gt;" style="text;html=1;strokeColor=none;fillColor=none;align=center;verticalAlign=middle;whiteSpace=wrap;rounded=0;" parent="1" vertex="1">
                    <mxGeometry x="790" y="170" width="70" height="40" as="geometry"/>
                </mxCell>
                <mxCell id="52" value="" style="shape=image;verticalLabelPosition=bottom;labelBackgroundColor=default;verticalAlign=top;aspect=fixed;imageAspect=0;image=data:image/png,iVBORw0KGgoAAAANSUhEUgAAAN0AAAETCAYAAACyUQNqAAAgAElEQVR4nO3deXRT150H8K8kW97lBdt4ZTG2AxibxZMEZCBAWGIHCCEMnNSHTqYZ5HYYCkOg7WRtT4GS0mltMgNF7TQNdGYaOyE0BKvQkpAMdszmQDHGIGHANt4XWd4ka7nzh2xhgxfJlp6W9/ucw6kjS08/uf763nffvfcJGGMMhBDOCJ1dACF8Q6EjhGMUOkI4RqEjhGMUOkI4RqEjhGMUOkI4RqEjhGMUOkI4RqEjhGMUOkI4RqEjhGMUOkI4RqEjhGMUOkI4RqEjhGMUOkI4RqEjhGMUOkI4RqEjhGMUOkI4RqEjhGMUOkI4RqEjhGMUOkI4RqEjhGMUOkI4RqEjhGMUOkI4RqEjhGMUOkI4RqEjhGMUOkI4RqEjhGMUOkI4RqEjhGMUOkI4RqEjhGMUOkI4RqEjhGMUOkI4RqEjhGMUOkI4RqEjhGMUOkI4RqEjhGMUOkI4RqEjhGMUOkI4RqEjhGMUOkI4RqEjhGMUOkI4RqEjhGMUOkI4RqEjhGMUOkI4RqEjhGMUOkI4RqEjhGMUOkI4RqEjhGMUOkI45uXsAghxdSaTCQaDAd3d3ejq6oLRaIRAIABjDADQ0dGB2tpazJw5E7GxsaMej0JHyCMYY2htbYVGo0F7ezu6u7vh5eUFX19f+Pr6QigUQigUwtvbG42NjaiqqkJwcDACAgKsOr6A9ceVEB7TarXo7Oy0hOzixYsQiURYtWoVwsPDIRAILGHrf35NTQ1qamqQmJiIuLg4q9+LQkd4q7e3Fw0NDVCr1TCZTBAKhfD19cWDBw/g5+eH9PR0eHkN7gwyxnD//n00NzdDLBYjMTER/v7+Nr0vdS8J77S0tKCurg4NDQ2IjIxEZGQkAgMD4ePjg3v37kEikWDWrFmPBU6tVuPGjRvw8fFBUlISgoODx/T+1NIRXtDr9WhubkZbWxva2togkUgwffp0eHt7W75/584ddHR0IC0tDT4+PpbXarVaVFVVoampCXFxcZg8efK4aqHQEY/Wf+7V2tqKgIAASCQSxMTEQCQSAQC6u7vR0NCA+vp6BAcHIyEhAb6+vgDMo5bV1dWoq6tDSEgI4uLiEBgYOO6aKHTEIxkMBtTX1+PGjRuIiIjArFmzIBaLwRhDT08P2traoNFoUFlZibCwMKSmpg4KVHt7OyoqKtDd3Y309HRIJBK71UahIx6nvr4e9fX1AICEhATLyKTBYIBOp4PJZAIABAQEYMqUKYPO3Xp6enD//n20t7cjMjISU6dOtXt9FDriMTo6OlBaWgqtVgtfX1+YTCZ4e3sjNDQU/v7+8Pb2hkQigb+//2ODJADw4MED3L17F+Hh4Zg0aZLNo5LWotFL4hFqampw7do1NDU1IT4+HrGxsYiOjoZQKISPj4/l+prBYMDNmzchkUgsAyIajQb379+HWq3GjBkzEB4e7tBaqaUjbk2n06GiogIGgwFJSUkjnntduXIFZ86cQVxcHLKyshASEoKbN2+iu7sbYWFhSEhIsITTkSh0xG11dHTgypUriIyMRHJy8pBdxt7eXtTV1eGLL75ATU0NoqOj8fLLL6O3txfffPON5bzNUV3JoVDoiFu6f/8+amtrER8fP+QULJPJhIqKCtTV1aG7uxsajQZBQUGQSqVobm6GRqNBfHw8oqOjOa+dQkfcitFoxPXr1y3dyUdnhTDGUFFRgatXryI+Ph7x8fGorq6GVqtFVFQUurq6EBUVhZiYGMuFca5R6Ijb6OzsxM2bN+Hj44OUlBTLBe5+TU1NKCkpQU9PDxYuXIjIyEgUFxfj3r17SEhIQEBAAJKTk61eDeAoNHpJ3MKDBw9QVVWFqKioIa+d3b9/HyUlJZg+fTpmz54NACgoKEBVVRUWL16MKVOmICIiguuyh0ShIy5Nr9dDpVKhpaUFaWlpQ45O1tXVoaSkBBkZGYiLi4PRaMSxY8dQX1+PzZs3Wy4duArqXhKX1NHRgerqaty4cQNRUVF46qmnBk1C7ldfX4+vvvoKc+bMQXJyMmpqanD+/Hl4e3vjueeec3pXcijU0hGXotfroVQqUVVVhdraWsybNw9z5swZ8rn9gUtPT0dCQgLOnj2Ly5cvY8mSJXj66ac5rtx61NIRl6HT6VBcXIyOjg74+flh7ty5w84O6ezsxNmzZzFt2jTExcXh888/R2lpKdavX4958+ZxXLltKHTEJVRVVaGgoABqtRorV65Eenr6sBesu7q6cO7cOYhEIkyZMgUPHjxAZWUllixZgqSkJI4rt53rnF0SXquurobBYMDq1avx9NNPDxs4nU6HkydPoqamBjExMdBqtbh37x5WrVrlFoEDqKUjLqC2thbV1dWYPHkyoqKihn2eXq/HRx99hLq6Oqxfvx6MMVy5cgVpaWlITk7msOLxodARp+mf8a/VajF16tQRZ/f3z58MCgrCsmXL0NjYiG+++QZPPvkk4uPjOax6/Ch0xGG0Wi0qKytRW1sLkUiEoKAgREVFISQkBAaDAeXl5QgKCsKMGTOGnKwMmKd1lZWV4fjx41iwYAFWrlyJ8vJylJSUIDMz0ylzJ8eLQkfsrqenBzU1NVCr1QgMDMSECRMgEAig1WrR0dEBrVYLnU6H6OhoTJkyZchjGI1G1NbWor6+HhcvXkRCQgIyMzNRVlaGW7duYfHixS4zw8RWFDpid+Xl5ejq6kJKSsqQAyL9v3ICgWDI1zc1NUGlUiEwMBC3b99GaGgoli1bhosXL6KyshLLly93+EJTR6LRSx5T5WVAIBBAIMiBYtRnK5AjEEAgECBnlCcHBwfDz89v2BFIQd9xHtXT04Pbt2/j9u3bllXdYrEYaWlpKCkpQXV1NVauXOnWgQModLyWuP1NyAAAcuzJU43wTAVyBFmQA5AVKnEkc+TjRkVFQaPRoKmpyepa7t69i7KyMhiNRjz11FO4c+cOPvnkEwDAN998A8YYnn/+eYSFhVl9TFdF3UueU+VlIGlHMQAZCtkRPJ4nFfIykrCjGJDmKlG0PdGq4zY0NODmzZtYtGjRY0twBtJoNLhx4wZEIhGSkpIQGhqKS5cu4X//93/x1FNPYcGCBZg4caJlL0pPQKHjO1UeMpJ2oBiArJA91oopcgTIMjdxYKM1cY+4fPkywsPDhxws0Wq1lq3uQkJCkJiYaFkJUF1dDaFQaNVtp9wRhY48DJY0F8qi7Ui0PJ6BLHnxmAIHmFux27dvIy0tDWKx2PJ4dXU1qqqqEBYWhkmTJrnkSgBHonM6gszduZACQHE+TvWd2qny+gInzYVyDIEDgMDAQIjFYjQ0NAAwT1K+du0a7t+/j+nTp2PGjBm8CxxALR0BMPC8DbJCKNedQFKWHJDKUFg01Hme9dra2lBWVobg4GD09vYiNDQUkyZNctr+JK6AQkfMFDkQZMkHPDDcwIrtbt68Cb1ej6SkJPj5+dnhiO6NQkf6DGjtIEWusghWDlQSG9E5HTFTnUJ+cf9/zELyKIF7eGG9799oV8yJBYWOAFAgp++ygdnoF8sP5G+EkjEwxsBYIWTyrFFnqhAzCh3vKZCT0T/bhEGZKwUAFO84MMLUsEwcGXBpAUjCTKmj6/QcFDpeUyEvIwvyvtkmRzKBxOc3mi8fQI4T1rZcigPYUSzDOnuMuvABI7xVKAMDwKSywiEfhzSXKUc7iDKXSSFluaM+kfSj0PGUJViPBI4x1hck8/eH+vaAgzBQ4GxG3UseMs82wfCzTRKfx8a+czT5MH1MRY4Agj0zoWR0acFmzk494ZayUNbXdZSxkRox1v+8R1uyvlZwxBaQjIhCxzPmII0SOMYYY4VM1tfFlA5InaVb+sg/KfUxrUYzUjyMyWSCXq+H0WhEb28venp6oNFooFarodfrMXv2bAQFBTm7TF6jexl4mM7OTsjlcpSVlUGr1aK9vR1dXV1obGzE0qVLLbeRIs5DofMwAQEB8Pf3x5kzZ6DX6yEUCsEYg1AoxJo1a6iVcwE0eulhRCIRtmzZAqlUCoFAYJnVv2HDBjz77LNOro4A1NJ5nJaWFhw+fBiVlZWQSCTo6upCREQENm7cOOT93Qj3KHQe5NatW3jrrbdQUVGB73//+/Dx8cEbb7yBJ598Eunp6c4uj/Sh0HmQuro6hIWF4fDhw8jIyIDRaERVVRVSUlJ4uS2Cq6JLBh7EYDBAr9cPWp3d09MDkUg0aGMg4lwUOjdlMBjwpz/9CZGRkVi0aJGzyyE2oNFLN3T//n384Ac/wI9//GOoVCMtNiWuiM7p3Mznn3+OPXv2QKPR4K233sILL7zg7JKIjSh0bqKxsRG///3vkZ+fj7lz5+L73/8+UlNTnV0WGYPxdS9VecgQCCAQZGDELTX6KHIENtwlxg5cvT4bNDU14c9//jNeeeUV5OXlUeDc2fjmSytZrnSExZADn5krHXqpiEO5en3WMxgM7MGDB84ug9jBuJf2PPxlHWG5iGVtFvfrsFy9vuFcu3aNFRYWMq1W6+xSiJ2Nfz3daEv7B3zfKWuuXL2+IeTn57M5c+awzZs3s+bmZmeXQ+zMLotYh99v4+FCyNG6d47k6vX1e/DgAXvjjTfY7Nmz2bZt21hFRQUzGo3OLovYmX1Wjg+5tH/A+ZQ1u0o5kovXZzQamUKhYMuWLWMLFixgH330Eevt7XViRcSR7LRdw+NL+23axs3hXLs+tVrNvvOd77ANGzaw8vJyJ1dDHM1ue6QM/CUutGbwgmOuXJ/BYGC3bt1iarXa2aUQDthvY6IBAxIuOfTuQvV1dHSw//u//2Pd3d3OKYA4lf3mXg7YKxEAZIUj74fI+V1fbKzPQpFj19qUSiV27tyJt99+G5WVlXY7LnEj9kyw5ZrYqOdJhUw26Dnmcy5HDyBaXx+z+7U7o9HI8vPz2TPPPMPWrl3L/vrXv45psOTrr79mn3zyCWtsbBx/UY/Ud/PmTdbQ0GDT66qrq+mivY3suMpAhVN9NziTbnweIzcizrjriy31Acg8AsaUyJVKMTNp7O+q1Wpx79497Nu3D7t370ZYWBjefvttzJ07FxqNBszKlVUdHR04dOgQbt++jY6ODvzqV79CU1PT2Asbos7f/e53uHjxouUxk8k04mvKy8uxe/duKBSuNmnOtdkxdEqU993gbNZodxR81Gh3fVHkDO6KjqlbOpb6lCgvHv0GiSO5desWtm7div/4j/8AYwzt7e14++23sWbNGhw/fhwCgWDUYxiNRsjlcrS0tCA7OxubN2/G3bt3ceHChbEX9ghfX19897vfxYIFCwCYF7+eO3duxD8K8fHxCA4ORkdHh93q4AP7hU51G2UAABtbBlUeMrLKkKsc4f7WmUf6bj44xL+h9uK3V32KE5DL1o3rvtsJCQlITk6GXq+HQCCAUqlEcXExGGNYtmyZVcf48ssvcfnyZbz66qsQiURgjMHf3x93794d8vmtra3DBsFgMMBgMECj0aC5udnyuFAoxNSpUxEcHAwAOHHiBPLz86HX6y3P0Wq1qKysRFdXFwAgKCgIEydOhFgshsFgQENDg1Wfh+/sFjrVqXzznTylG/G8tS2DIgeCpHxsHO3+1nZo6cZSn+p2GaRj6FveuXMHra2tAMy/mLt27cLTTz8NnU4HkUgEoVCIqKgohIWFjXqs7u5ufPDBB0hLS0NMTAwAgDGG1tZWdHZ2PvZ8rVaL/fv347e//e1j37t48SJ+9KMf4dixYzh06BD+8R//EXK5HCaTCVevXsW2bdtw4cIFdHV14auvvkJFRQXOnDkDtVqNiooKFBQU4MKFC3jrrbfw5ZdfAjCHtb6+HidOnMDrr7+OgwcPwmAw2Pwz4xO7hU75sO82+vkSbLzrix1aOlvr63+NLV3lnp4eHDp0CFu2bBnU9YuNjcXWrVsREhICnU6HpKQkNDU14ZVXXhm1i3j+/HmUl5cP2pKhtbUVjY2N8Pf3f+z53t7eePbZZzF//vzHvufj44Pr16+jubkZL7zwAubPn4/Dhw/j8uXLmDhxImpra1FXVwc/Pz+kp6cjLi4OixcvRldXFw4ePIi4uDisW7cOMTExqKioAGD+A9DT0wOpVIrly5fj448/Rm1trdU/Mz6yU+hUuG3uu43eMvStcTuxjoENGkxxJBvqs1DghNz6u4tWVlbiX//1X/HLX/4SixYtwt/93d8N+v6KFSuwevVqGAwGvPrqqzh06BC8vb3xz//8z/j888+HPe7Jkyfh7++PsLAwdHR0oKury9IaRUdHP/Z8kUiEVatWWc7NBoqIiEB0dDTmzp2LGTNmQCaTITY2FtevX0d0dDRiYmIgEAggFAohFoshFoshkUhw/fp1y65ifn5+2LlzJ1599VUA5vPNyZMnIyYmBtOnT4eXlxfa29ut+6HxlH1CpzoF88CgFBtH6bspDphvKC/PGtxNzLBmlSkH9QEK5AgEEAiyIIccWQIBBBl5GK667u5uHD9+HFu2bMGdO3fwy1/+Eu+88w4iIiIGPU8sFkMmk2Hz5s1YvHgxUlNT8etf/xpz5szBa6+9hvPnzz927ObmZqhUKvj6+uJvf/sbFAoFTp8+jQ8//BAikQjTpk2z6cdgMpksP28AkEgkiI6OtgyWDBw0Gfi1Xq9HR0cHNBoNAHOX0mg0WkY3+5/bf3wyMvuELnE7ihgDs6KrmHlk6G5ikSPvLGhDfUAmjjxa3wgt8unTp/H2228jNTUVR44cwdq1ayEUDv1jTUpKwk9+8hNLWMLDw7F//37Mnj0be/bsQWNj46DnV1VVoaWlBcuWLcOaNWuwcuVKSKVS9Pb2YuLEiUhKGrrVvnv3Lurr6x97XCAQQK/XWwZH6uvr0dHRgVmzZgEwt1r9jEYj9Ho9TCYTJk+eDLVajePHjwMwb4x06dIlMMYGhUwgEMBoNFLwRkG7gY1TSkoK9u7di1/84hdISEgY9fmBgYHw8nq4NU1ERATeeecdaDQaHDp0aNBzm5ubYTAY8OSTTyIgIMByTlhXV4eVK1dCIpE8dnytVouf//znOHr06GPfEwqF0Gq1uHDhApRKJRQKhWX359raWnR3d0OtVgMwj7p2dnbi6NGjiI6OxrZt2/DZZ59h69at+OCDDxAcHAytVouOjg60t7eju7sbra2tEIvFNIo5CtqYyEZqtRq9vb2IjIwEACQnJyM5OXlcx5w6dSr+4R/+AYcPH8batWsxb948AOaBGbFYPCjMX3/9Nfz9/bFhw4Yhj+Xt7Y1NmzYNGUjGGAIDAxEZGQm1Wo25c+dizpw58Pb2hsFggEwmg0QigU6nQ0ZGBry9veHj44Pw8HD80z/9E5544gmoVCrMmzcPqampaGlpwaZNmyASidDZ2YlJkybhzTffpH04R+PwOS8e5Pr16+zFF19kb775JjMYDHY9dm1tLVu4cCH74Q9/aDn2mTNn2OLFi1lLSwtjjLGenh4mk8nY+++/P6b3qKmpYdnZ2ewvf/mL3eruZzKZ7H5MT0XdSyv09PTg6NGjkMlk0Ov1Vl/UtkV0dDSee+45XLp0CXV1dQDMLWBoaCjq6upgMplQUFCACRMm4KWXXhrTe9TX10MgEKC2tha9vb32LJ/O42xA26qP4vbt23j33Xdx4cIFbNq0Cd/97ncfG5m0l9LSUmzZsgX79+/HihUrwBjDsWPH0NraiqlTp6Kurg5r1661XCS3BWMMdXV1UKvV8PHxQWxsLHx9fR3wKchoeBu6/hE8b2/vYZ/T0NCALVu2oKmpCT/60Y8cvpuyRqNBdnY2li9fju3bt1se/+abbyASiZCWlubQ9yfc4NVAitFoRElJCUpKSixduAkTJmDhwoVYsGDBoFFFwBzI9evXY/78+Zg+fbrD6wsKCkJiYiLu3LkDk8lkufQwd+5ch7834Q5vWrrOzk78+7//OwoKCtDe3m65sCsQCCCRSJCZmYlt27YhNjZ2xNbP0fLy8vDVV1/h2LFjQ07zIu6PFy1dS0sLfvKTn6CgoABCoRBeXl4QiUQAYFlu8+GHH6K0tBQrVqzAzp07nXa+M2HCBHR3d0On07lE6EwmE77++mv4+vpizpw5lp8bGTtehC4/Px8ff/wxvLy8HutCCgQCiMViMMZw9epVhw2SWCsgIAA6nW7QkhpnEggEOHXqFE6fPo0VK1Zg06ZN1N0dJ48PXV1dHU6dOgWDwTBiyyEQCODv748HDx5Ao9E4raWTSCTo7e11mRZFIBBAJBJBpVKhqqoKJ0+exMsvv4yNGzeOe1IAX3l86G7evIk7d+5YdZ4mEolQXV2NTz/9FC+++CIMBgNMJtOgCcHWfN1v4HYHA58z8LGBX/e/v06nw40bNxAVFTVobdqj7/HoMdmA+aLD1TVwkvJwzx/4mNFoRFtbG2bMmIH29nao1Wq89957UCgUWLVqFTIzM5GamjriHylVXgaSdhQDkKGQjbBYGYB5wnkW5ABkhQzWrlF2Jx4/kPL+++/jBz/4AQICAqy6gMsYg0QiQUREBIxG42NBeTRIA//X2q+He61AILDMYZw4cSK8vb2H3adkpBAPFcShvm/NH5He3l4sXboUW7Zswfvvv4/CwkKIRCL09PTAYDAgMTERu3btwsaNG4es0+xhkKS5yhEmtw8MnBJHMrlZ+MU1j2/ptFqtZasEazDGEBQUhISEhEEjnP0e/br/vwcuU+o3cLVB/9dDrX4f+P3+tWz953QDXzfcMYarp//1rG81wKPfe/Rn8ujx+n8et27dQl5eHu7cuQPGGHp7exESEoLZs2djzZo1WL58+Sg/1UzszpVCvqMYxTsOQLF9qNZOhbyMh8H01MABPAidRCKBr6/vY8tQhmIymWAwGLBixQr827/925Cb8owUQGu/725Tpn784x/jV7/6Fby8vCCRSLBo0SK89NJLWLRokVVbTgBA4vMbId1RjGLIcUJxBJmPpE6RkwRzD7TQscu8XIDHh27y5MmIiIiwLDsZjUgkwuzZs+Hj48NBde6hp6cHQUFBmDt3LrZs2YIVK1bAz8/PtoMkbsebsh3IkgPyPXnYnflwjaIiJwNZ5j6l9RtNuTGPn/A8ffp0zJw506rNcvR6PWbNmoWlS5dyUJl7YIwhPT0d+/btwwcffIC1a9faHrg+mbtzIQWA4nyc6luKr8rLQJa8GJDmQsmDwAE8CF14eDj+/u//HoGBgdBqtcM+z2AwoLu7G8888wxCQkI4rNC1CQQCrF+/Ht/+9ret7koOy7K1fTF2HFBApcgxj2pKZSjkbL8c5/P40UvA3ILl5ubiN7/5DdRqNXx9fS3XwUwmE7RaLUJDQxEeHg6xWIy8vDykpqY6uWoPpciBIEs+4AFrLiN4Fl6EDjCH6+OPP8Yf//hHXL58GQaDAV5eXhAKhUhNTUV2djbS0tKwe/duBAYG4j//8z8xYcIEZ5ftgVTIy+gbNIEUuaPteeqJxrb21X21trayK1eusJ07d7IpU6aw/fv3D7qvd1FREZs5cyZ77733nFilBxt0yzIb7g9YKHOJW1Tbg8ef0z0qNDQU8+bNw7JlyyAWizF16tRBLZpUKsXrr78+5J6SZLwUyEkyb8FoJsee0bZe7N/dO0sOmbWbkLo43oWuX/92c0NtW5CdnT3mLRHIcBTIyXg4vUuZa75NU/GOAxhxY3w73T3JlfA2dEPNNiGO0jfbpLh/tknfxXIAgBwnRr0dxfjvnuRKeBs6YPTZISaTCadPn0ZJSQmHVXme/tkm0oGzTRK3402Z+Uv5nuF30DYfYPx3T3IlvA6dNYqKirBr1y5UVVU5uxS3pMgRWGabFD1y8fvhxfIdODBCazfWuye5KgrdCIRCIbKzs2E0GrFv3z709PQ4uyS3Yp5tguFnmwy4D7x8hD6mrXdPcnW8D91o53RPPPEEXn/9dXz11Vf44x//yFFV7s+62SaJ2P6wj4mhBzJtu3uSO6DQWTGQsmbNGmzcuBFyuRzXrl3joCr3l2TuU6KwaJTZJpnrYI5dMfJPDUydbXdPcicev8pgOMzGiThbt25FaWkp/vCHPyA1NXXYO/MQM+t/vua7JB2x+nH3x+vQ2bK2LSIiAvv374dWq6XLDGRceBu6sZg5c6azSyAegPd9JGq1CNcodGMM3dGjR3HgwAGrFscSMhBvQ2frQMqjdDod5HI5Pv30UztVRPiCt6Ebb7fy29/+NtasWYODBw/i/v37dqqK8AFvQ9ff0o116N/HxwevvfYaxGIxfvGLX0Cn09mzPOLBeBs6YPytXWxsLLZu3YrTp0/jN7/5jd3vbko8E69DN17FxcWorKzEsmXLUFRUBI1G4+ySiBvg/XW6sbR2paWl+Pjjj1FQUICZM2fiwIED8PLyQmhoqAMqJJ6Gt6Eb7h4BwzEYDLhx4wby8/Px17/+FVVVVZbtxePj4+n+3cRqvA2drS3cgwcP8M477+DLL7+Ev78/xGIxhEIhAgICBj2vp6cHvb29CA4Otme5xIPw9pyuf/TSlrmXO3fuxPr16yEUCi2DJgEBAYNuNPmXv/wFu3btQm1trf2LJh6Bt6HrZ23o/P39sXjxYsyePRt+fn4IDQ213KJ44A0cp02bhrKyMvz617+2uQtL+IH3obPFl19+if/6r/9CdnY2fvvb32LdunWIjIwcFNyUlBT8y7/8Cz766CMcP37cidUSV8Xbczpbp4FVVFTgnXfewbx587Bjxw4EBwcjJSUFXV1djz13w4YNKC4uxoEDB5CamoonnnjCXmUTD8D7ls6a7uXdu3fx2muvwc/PDz/96U8tgyTBwcGIiYl57Pk+Pj744Q9/CH9/f+Tm5o544xLCP7wOnTWLWEtLS/G9730Pvb29+PnPf464uDirjj1p0iS8/vrrCA4ORnd3tz3KJR6C193LkbqYJpMJx48fx7vvvospU6Zg7969SE5Otuk9nn32WWRkZNA1PDIIb0PXb6h7bF+/fh1Hjx7FyZMnsWLFCrz11luYOHGizccWCgH1UUAAAAnwSURBVIXw9/e3V6nEQ/A6dP3dS6PRiJaWFly4cAFnzpzB5cuXER4ejn379mH16tV2uRVyfX09qqur8eSTT9qhcuLOeB06b29vlJaW4syZMyguLoZOp0NsbCw2b96Mb33rW3a9I2txcTHeffdd7N27F8uXL7fbcYn74W3o+s/nNBoNvLy8sGnTJsyZMwfz589HUFCQ3d9vyZIlKCgowN69ezFjxgzExsba/T2Ie+B16PR6PRYuXIjnn38e3t7eYzqGtTNawsLC8MYbb2DLli1477338LOf/Yw2ReIpXl8yAACxWGxz4AwGA65cuYLTp0/j7Nmz6OzstOp1s2bNwq5du3Dq1Cl89tlnYymXeADeh24sGxR9+OGHuHLlCmJiYnD+/HmbNidas2YNli9fjn379uHWrVs2vzdxf7wPna1dvJMnT+LcuXNYu3Yt0tLSMG3aNJw7d87q1k4sFmPr1q146aWX7DpQQ9wHb0M3lhauqqoKBw8exMKFCxEVFQXAvPqgqqoKTU1NVh8nMTERu3btGtO1P+L+eBu6fra0dB999BFMJhMyMx/eh6a9vR2dnZ206SyxGu9DZ62WlhacPXsWq1atQmRkpOXxqqoq+Pn5QSKRjOm4dXV1KCgoQH19vb1KJS6OQmelu3fv4s6dO9DpdDh37hzOnj2LP//5zygpKcG0adMwYcKEMR23sbERe/fuxQcffDDuXaeJe+Bt6Gz9BS8tLUVwcDCSkpIgEong5eWFtrY23Lt3D2lpaYO2bLBFamoqtm/fjmPHjuH8+fNjOgZxL7wPnbXndGVlZZg6dSrWr1+PRYsW4ZlnnkFERARCQ0ORnp4+5jqEQiFefvllPP3009izZw/trcIDvA2drZqbmxEfHw+xWGx57OzZs0hISMCsWbPGdWxfX1/s3LkTbW1tePfdd62+/EDcE29DZ2tLJxQKERERYfnvu3fvorS0FKtXr35sG76xSElJwWuvvYbz58/j0qVL4z4ecV28nXtpq5iYGMt0McYY/ud//gcJCQlYvXq13d7jxRdfxIQJE5CUlGS3YxLXw9uWrp+1LZ1UKoVarYbBYEBRURHa29vxxhtvIDAw0G61iMViLF++3OotIYh74m1LZ+vo5ZIlS9DW1oYTJ05Ap9Nh69atDg+HwWAY86gocV30/6iVQkJC8K1vfQvNzc0IDw+3y2rykTQ0NODQoUN44YUXMG/ePIe+F+EW77uXtvDx8UFsbKzDA9f/XuXl5fjpT3+Kjo4Oh78f4Q7vQ+eqC0lDQkKwc+dOVFZWIi8vj7Zo9yC8DZ07/BIvWLAA3/ve9/CHP/wBZ8+eBWCeA3rp0iXo9XonV0fGivfndK7a0vV79dVXcfXqVcjlcvj5+eF3v/sdhEIhDh48OKYtJojz8balcxfe3t7Ytm0b7t27h5ycHHz22Weor6+n+5u7Md62dO4yo1+pVOLw4cNoa2tDd3c3vLy80NzcDJ1O5+zSyBhRS+fCenp68Mknn+DTTz+FWq2Gl5cXvLy80NLSQvMz3RiFzoX5+vrilVdegVwux4YNGyAUCtHZ2QmtVouGhgZnl0fGiPfdS1ceSBEIBIiMjMRzzz2HpUuX4osvvsB///d/48KFC6ipqXF2eWSMeBu6fq4cuoF8fHzw3HPPYeHChfjiiy8QHh7u7JLIGPE+dO4mMDAQa9ascZuBIPI43p7Tufsvrbu00ORxFDqPp0BO3y3BrP6XkQeVs8v2YBQ6D9TW1mb5uvt6Gf5m4+ulG59Hon1LIgPwNnSeLDQ01PK1f+pufN13q+fh/ymRK+17gVSGN7dT5ByJ96GjcyMVFDlJ2FEMADIUFh1B5mgvIePC+9DxnSInCVlyAJChUEmB4wJvQ+cOF8cdTZGT0Rc4KXKVR5BJvUpO8DZ0AoEAjDGIRCJnl+IUqrwMZMmLYQ5cEeg0jju8uTjOGENPTw8AQCQSoaurCwaDAV1dXdDr9dDpdBCJRPDz83NypY6nystA0g5z4GSFFDiuCZgnj50/4ve//z1OnToFb29v+Pj4YMqUKbh27Rr8/f3BGMPLL79s130sXdHDwAGyQoYjdBLHOV51LyMjI3H16lX86U9/Qm9vL7KysnDjxg18+umnqKiowNSpU51domMpcgYETjlq4FR5GYMvmucoOCjS8/EqdEuWLMGiRYvg7++P8vJy/OxnP4PBYIC/vz+ys7ORkpLi7BIdR5EDgXnUBNJcJY6MOmqiwIH8jVBaruUVQibPAuVu/HhzTgeYb1W8adMmnDt3Do2NjWhsbITJZEJKSgqys7OdXZ7jqPKQMSBwRVadxGXiSNHApjAJM6VAuUMK5BdetXQAsHTpUixbtgwGg8Fyn7kNGzZ47v2/VXnISNqBYtgSuCEoDmBHsQzr6Bxw3HgXOrFYjO985zsIDw9Hd3c3nnjiCaxcudLZZTnGgMBBVjj2wKnykJFVZr6WZ8/6eIp3oQOA9PR0LF68GEajEStWrMC0adOcXZL9qRTIGRA4NtZhSkUOBEn52EjX8uyGV+d0/Xx8fJCVlYXKykq8+OKLzi7HARTIScqCebJJLpRjDJwiR4Csslwo2RFadWBHvLpON5BGo0F5eTmeeuopCIWe1eArcgR907tsMLA17OuWzqLreA7hWb9tNpBIJJg/f77HBQ4AbpfZ/hrpzIc3olQcMHdL5VmDF7dm5NHSVnvgqKVTIEfQ192xljQXyqLtbtqt4dvnJbbg5s+86jZs/ePr1quX+fZ5iU24CV3idhTxafUy3z4vsYmLDKSoBi+mZJ5+PYhvn5cM5BKjCHxbvcy3z0sGc3ro+LZ6mW+flzzOqd3LgYsp+bB6mW+flwyDOYkyV8oAMEDKZIWOfa9CGfrey7Z/9qyLy89LXJtTupeDVy8XefysB759XjIKzmNeKBvQkihte507NhFj/bzEY3EbugG/gNJcK38BB/3SOrY8uxvL5yUej7vQKXOZdMy/gEqWK5Uyt/q9HcvnVeYyqVTGZNIB55bSXOZOH5uMjpvQjStwjDFWyGSQsbE2dJwPpIz18xbKGDDwj4uS5UrdsIUnI3L8ejp7rF5WnIBctg5H7F2bI4zj8ypOyCErZHQpwdM5NNLKQibrbznG8edamSt1j3OicX3eobrQ42vhiWty4CUD+6xeBgBleTFmJbv6n//xfl4lyotnYdDHVN1GmXQmkoZ9DXFLjkrzmM6jhmwd3OOv/bg/7xCXRNymhSc2cVhLN97Vyw9v25sFOeTIcunb8qrG/XlVt8se+fzu0sITW7nI0h5C+MPpqwwI4RsKHSEco9ARwjEKHSEco9ARwjEKHSEco9ARwjEKHSEco9ARwjEKHSEco9ARwjEKHSEco9ARwjEKHSEco9ARwjGrQ9fW1obe3l5H1kIIL/w/FFi7wKlimEIAAAAASUVORK5CYII=;" parent="1" vertex="1">
                    <mxGeometry x="350" y="322" width="221" height="275" as="geometry"/>
                </mxCell>
                <mxCell id="54" value="" style="shape=image;verticalLabelPosition=bottom;labelBackgroundColor=default;verticalAlign=top;aspect=fixed;imageAspect=0;image=data:image/png,iVBORw0KGgoAAAANSUhEUgAAARoAAAECCAYAAAAhNhhMAAAgAElEQVR4nO3de1yUdb4H8M9cGAYY7qjcNOUOIorQQQc1y0uCle1m1u5qrdaBV5lBrtpZj7WdtONmF6FTexLLUre243ZxNZl8lbcMNBUFRBBmUO4XQe7Xuf3OH8jIyG2AeZgZ+L5fL17FzPPM8xtgPv7uD48xxkAIIRzim7oAhJCxj4KGEMI5ChpCCOcoaAghnKOgIYRwjoKGEMI5ChpCCOcoaAghnKOgIYRwjoKGEMI5ChpCCOcoaAghnKOgIYRwjoKGEMI5ChpCCOcoaAghnKOgIYRwjoKGEMI5ChpCCOcoaAghnKOgIYRwjoKGEMI5ChpCCOcoaAghnKOgIYRwjoKGEMI5ChpCCOcoaAghnKOgIYRwjoKGEMI5ChpCCOcoaAghnKOgIYRwjoKGEMI5ChpCCOcoaAghnKOgIYRwjoKGEMI5ChpCCOcoaAghnKOgIYRwjoKGEMI5ChpCCOcoaAghnKOgIYRwjoKGEMI5ChpCCOeEpi4AIWR42tra0NzcDI1GA4lEAgcHB1MXqV88xhgzdSEIIUNTXFyMmpoaSCQSMMbQ0tKCgIAAODo6mrpofaIaDSEWpKOjA1evXoVWq0VgYCCcnJwAAIWFhaiurqagIYSMTGlpKcrLy+Hs7AxfX18IhXc/vlqtFgKBwISlGxh1BhNi5jo6OnDx4kXU1NQgODgYgYGBeiFTUVGBixcvYtKkSSYs5cCoRkOIGautrUVBQQGcnJwQEhICAGCMgcfjAegKoXPnziE8PBwSicSURR0QBQ0hZkitVqOwsBBNTU3w8fGBu7s7amtrIZfLMW3aNLi7uwMArly5gokTJyI4ONjEJR4YNZ0IMTMdHR3IyMiASqXCrFmz4ObmhoyMDOTm5qKqqkpXc7l58yZKS0sRHh5u4hIPjmo0hJiRpqYmXLt2DW5ubvD19UVFRQUqKythZ2cHW1tbeHp6QiKRoK6uDunp6Zg/f75ZN5m6UdAQYiYaGxuRm5uL++67Dy4uLrhy5QqsrKwQFBQEAMjLy0NoaCg0Gg0uXryI4OBgTJkyxcSlNgw1nQgxA/X19cjJyYGfnx+cnZ2RmZkJR0dHhIWFQSgUIjMzE15eXrC1tUV+fj4AYObMmSYuteGoRkMIukZympuboVardSM6o3FNPp+P+vp6VFVVwc/PDzweD1lZWfD09MSUKVPAGEN+fj4mTpwILy8vVFRUICsrC4sXLzbreTP3oqAhBF1zUUpLSyEUCsHj8dC9Mqc7dHoOKQ9F93k9z+/+f6FQiPLycnR0dGDJkiVobGxEUVERAgMD4ezsDAAoKSkBAAQGBqKzsxNnz55FREQEJkyYYIy3PWooaMi4p9Vqcfv2bQQEBMDFxWXUrltVVYWOjg4EBgbi9u3bqKysRFhYGOzs7AAAlZWVKC8vR1hYGICuoWxPT08EBASMWhmNhfpoyLjX0dEBoVCoWzc0GoqLi1FSUoKAgADcvn0bdXV1mDVrli5kKioqUFRUhKCgIEgkEsjlclRVVSEiImLUymhMFDREjyI5GjweDzxePGSDHi1DPI8HHo+H+MEPNls1NTW4ceMGCgsLcevWLbS2tkKlUkGpVEKpVEKlUkGj0cBYGx0UFRWhrKwMISEhYIyhtrYWYWFhsLGxAQDcunULRUVFCAkJgYuLC0pLS3Hu3DlERETA1tbWKGUYbbRNBLmHDPG8WKQAkCbJkZbgN+hxcaly7Inp7zjz19TUhMrKSmi1Wmg0Gmi1Wmi1Wt3zPB4PAoFA76vnc9bW1hCLxRCLxeDz+XrPCYVCvXVJCoUCt27dQlhYGCQSCWpra1FUVIQZM2ZAJBKhvLwcxcXFCAwMhJubG5qbm/HTTz9hxowZ8POz3J8xBQ3pRZEcDf/EdABxSGV7ENP7CCRH+yMxfbAwsjwajQZqtVovaBhjuhpOd+2m53OdnZ3o7OxER0eH3nM8Hg9WVlYQiUSwsbFBZWUlrK2tMWPGDFhbWwPo6h9SKBSor6+HSCSCSqVCQEAAnJyc0NHRge+++w7+/v6IjIwcvR8CByhoSG+KZET7JyIdQFwqw557kkYWz0NsV1UG7N4niY5arUZjYyPq6uqQlpYGKysrPPnkkxCJRL2OvX37NpqamuDt7Q0rKytoNBqcOHEC169fx1NPPWXWK7MNQUFD+qQLE2kS5GkJ8NM9Ho3YlHQKmSEoLi5GS0sLpk+fbvA5v/76K1pbWxEYGIj29naLbjYB1BlM+hGzOQlSAEg/hGOKrscUyXdCRpoEOYWMQWpqalBZWQl/f3+Dz8nPz0dFRQXmzJkDsVgMtVpttI5oU6GgIX3zW45VXUmDxHdkUMjiu/ptpHFI7VHDIf1rbW1FXl4efHx8+mwu9aWoqAiXLl3CnDlzYGtrCz6fD41Go9f3Y4mo6UT6J4sHLzalxwP9dQ6Te2m1WmRlZcHJyQnTpk0z6JyamhqcPn0aUVFRusWSKpUKV69eRVBQkMUObQNUoyEDidmMJGn3N1IkySlkDFVaWgoej4epU6cadLxKpcL58+cRFBSktyJbKBRafLMJoKAhA1Ecw6H07m9CEUDtJYPU19ejvLwcvr6+Bq2PUiqV+OGHH+Do6IjQ0FC953g8HsRiMZqamrgq7qigoCH9kCH+zhB3lxTsSFaYsDyWQalUIjs7G1OmTIG9vb1B51y5cgWFhYXw8fHpM5gcHR11iystFQUN6YMM8dHds34Z5HfaT+mJ7/S/LEGRjOjoeMRH8+4sYeCBF52M8RRNjDHI5XK4u7vD29vboOMvXbqEpqYmzJkzB83NzX0eZ2VlhdbWVmMXd1RR0JB7KJAcHYuUO7N+98QAfstXdQ11IwWH+0saeS7S03MQsp+BMQbG5EhCIt6x4DVQQ1VTU4O2tjb4+PgMeqxKpcLp06dx+/ZtzJ07F+Hh4WhtbYVSqex1rEgkgpWVFdRqNRfFHhUUNESPLP7O0oK41LtLC/wSsC2u639TdvRdS5EdTkFcahrG0GqEIWlvb0d2djb8/PxgZWU14LEqlQonT54EYwyLFi2CRCKBtbU1+Hw+2traeh3v6OgIiUSCyspKrorPOQoaotNzaUHaPRPy7k7g66uWokBBjhQhenPS5MhNj8Pj42CYSq1W6+bLdG9Y1Z/6+nr89NNPEIvFWLBggd6CS0dHRzQ0NPQ6h8/nw8rKCi0tLUYv+2ihoCEAumf9ov9Zv7oJfEBKr/aTHLnp94xKKQqQIw2B4fNhLVf3znyDNZlqa2tx6tQpuLu79woZAJBIJH3WaICu5pMlD3NT0BADZ/36IeFu+wl6A1Cyw0iJe1xvjo3i2CFg1fIxP4O4sbER1dXVg86XqaqqwpkzZ+Dr64vw8PA+R5ccHBzQ1tbWZ1+Mq6srNBoNVCqV0co+mihoCPy72ktITRtkQl7M4+iKmnQcOnY3aRQFOZDqt5sgz01H6BifeNPZ2YmcnBx4e3vDwcGh3+MUCgXOnz+P0NDQAe9cYG1tDZFIhKqqql7PSSQSaLVaiw0aWoJAyDAwxpCbmwuhUIjAwMB+j1MoFLhw4QIWLVpk0FYPCoUCtbW1mDNnjt7jKpUKubm58PX1tYgbxt2LajSEDENTUxM6Ojr6XcfEGENmZiYyMjLw4IMPGryfzMSJE8EY6zVvRigUwtraut8+HHNHd0EgZBjKysrg5OTU76rs9PR01NfXY/ny5UOqgTg4OMDKygq1tbW6jcqBu9uCdnR0jLjspkBBQ0gfSkpKoNFodKM9fD4fQqEQIpEIDQ0NqKqqwsKFC3ud19nZiXPnzqGurg7Lly/Xbdk5FO7u7mhsbOx1Lyk+n6+3xagloaAh5B4KhQK//vorQkNDYWNjA61WCx6PB61WC8YYampqEB4e3utOkbW1tTh//jwcHBzw6KOPDjpxrz8uLi6oqamBUqnUCyp7e/s+O4otAQUNMci7776Ln3/+GQcOHBjV+x+NtpaWFly7dg0LFy6El5dXr+c1Gg38/f11t0S57777AADXrl3DuXPn8MADD4z4Bm9isVi3vqln0Dg4OEAul4/otU2FOoPJoMrKyvDjjz/i8uXLOHHihKmLw6ni4mLY2tr2GTIAIBAIUF9fj4yMDFy4cAFtbW3Iy8uDQqHAY489ZpS7SPL5fIhEol4zgfl8PhhjFrnbHgUNGdRPP/2E/Px8qFQqHDlyZERT4dvb2816hquXlxccHBxw7dq1Pp+vr6/HjRs30NjYCC8vL1hbW6OzsxPh4eFGvVOBs7Mzampq9B4TCASQSCSoqKgw2nVGCwUNGVBTUxO+/vprdHR0wMrKCunp6UhLSxvWa7W0tCAtLc2sJ505OTlh5syZaG1tRWZmpl7tQalU4saNG1AoFJBIJJg7d67uVrrGDk87OzuoVCq9USY+nw97e3sUFRUZ9VqjgYKGDOiLL75AZmamruOzoaEBBw8eHNb+KNXV1dBoNL06Uc2NWCxGZGQkRCIRrly5oqvBXbx4EcXFxRCLxYiJidHdldLGxgZtbW1GDRtbW1uIxeJefTJCoZCaTmRsKS0txaFDh9De3g5vb28EBATA1tYWJ0+exLFjx4b8eo2NjXB2djb7oAG6ag/BwcFwc3NDZmYm6uvr0dzcjPLycjz00EMQi8W6YyUSCZRKpdHnuLi4uKCtrU0vWCQSCcRiMTo7O416La5R0JA+aTQaHDp0CJmZmWhqasL8+fPx0ksvQa1Wo66uDvv37x/yUGtTU9OAa4LMTffm4j4+PigoKEBAQABWrVoFFxcXveO6g8bY+/p6e3tDKBTqva6zszMkEgnq6uqMei2u0fA26VN7ezv4fD6eeOIJqNVqtLW1IS0tDUuWLIFIJIKtrS1qa2vh7u7e69zm5mZkZGTAy8tLd+M0lUqFtrY23dB4bm4uXF1de3WgMsZQUlICsVis95xGo0FFRQVUKhWsrKzg4eEBjUaDkpISSCQSeHh4oKKiAgUFBfDw8NDd4bGyslLXt9Ha2gq1Wg2BQAAvLy80NDSgoaEBkyZNGnB/X09PT1hbW+PmzZu6kZ97V1+7u7ujoqICEyZM0DWpRorP50MikaClpUW3zw2PxwOfz7e43faoRkP6ZGdnh4SEBHzyySfYt28f7OzscPLkSbzxxhtISUnB7t27ERIS0uu827dv48cff0RFRQV2796N7OxsAF3bJKjVari5uaGqqgobN27E3r17e53f0dGBnTt34vDhw72ey8rKwgsvvICff/4ZPB4PHR0dOHLkCG7evIlLly7hwIEDUCqV+OSTT3D8+HEAwMGDB7Fjxw4olUqUlpZiy5YtOHv2LHg8HkpKSnD06FGDPrSurq4IDQ1FTU0N8vLyes3QnTJlCurq6vrcinMkHB0de/WHWVtbU9CQsaH7X06g619WgUAAgUCge6zn8920Wi0yMzMxdepUPPjgg7hx4wYKCgoAQDckKxQKYW9vD39/f9TX1/e6rpWVFX7/+99j3rx5eo8LBALMnz8fDg4OKCwshEAggFKphJOTE0JDQ1FYWIgpU6Zg6dKl4PP5+OWXX2BjY4OoqCgUFhaira0N0dHRsLOzQ3l5OQQCAbRaLcLCwgbdFa+bWCxGeHg4VCoVMjMz9RY4ajQaTu7BZGdnB6VSqTdS5+DggI6ODovqFKagIYPqnnrP4/EG/ONWKpWwtbXFrFmzcOnSJYhEIkilUmi1Wty+fRuenp4Auj48jzzyCKKionq9hlAoxIIFCzB9+vRezzk6OmL9+vXIyspCWVkZ5HI53Nzc4ODggBUrVsDHxweHDx9GS0uLrmkzf/58eHp64tSpU2hoaICdnR2uXbuGxsZG1NTUGLSR+L3lmzlzJlxcXPRGpM6ePQu1Wj3sZQf96Q6anjUloVCo+51YCgoaYjQikQiRkZG6GsX06dPh6emJ5uZm3Lp1Sy88rK2t+2x6DaY7OL755htcuHBBt5HU+fPnkZaWhtDQUISEhOhGtuzs7LBo0SKcO3cOMpkM0dHRsLe3x1dffQW1Wt1nH5Mhpk6diqlTpyI7Oxvp6em6DvN7t+ccKT6fD0dHR725M91NJ0tqPlHQEIN13Ual/39FuzfRrqysREFBAebOnQsAqKurg0gkgo2NDYCufpj29nZMmDCh12totVrk5uaitLS0z2sIBAIsX74chw4dgrW1tW4Lzb///e8Qi8Xw8/NDeXk5mpub0dDQAMYYHn74YdTU1CA/Px8rV66Ej48P/vGPf8Dd3V1XpuHw8vLSbXoVHR3d75YRI3XvLOHy8nKj9wVxjUadiNGVlJSgs7NTFwIVFRV6u9BlZ2dDJBLB1dW117nt7e3YuXMnoqKi8NJLL/X5+hEREYiIiNDbhW769Ok4evQoGGO6uxLk5ORAKpXCy8sLCxYsQEBAAKytrREeHo7y8vI+m2dD5erqCqlUOviBI+Do6AgHBwfcvHkTra2taG1tRXBwsN5cHnNHQUOGxJB+gYkTJ8LGxgYKhQJhYWFQqVQICQmBUqlEVlYWqqur8dBDD/XZzBCLxUhISBhwhXhnZyfmzZuH4OBg3WP//u//jvDwcLi6usLLyws3b95EYGCgrsN67dq1ug9mVFSUbvKhJbCysoKDgwOys7MRFBSEyMhIi5j02BMFDTG6adOm4ZlnnsH58+fR0tKC2tpatLe3w8rKChKJBIsWLer3Qy4QCBAZGdnnc9nZ2cjPz8etW7cwa9asXrNze25Ede+kup61Jzs7O73d6yyBt7c3nJyc4ObmZuqiDAv10RCDDdZH09OKFSuwfv16aLVaNDc3Q6PRICAgAHPmzBl2TeLKlSvYtWsXOjs7MXv27GG9hqUSi8UWGzIA1WgIh7y9vbFgwQLU19cjIiJixK+3cuVKLFmyBJMmTbK4psN4RzUawqnuyXXGYGdnB09PzxG/3r3DwpY08c1SUdAQgw11gphKpYJQKOxzGNuU7u2EptoR9yhoyJAMJWz4fD4iIyPh4eHBYYmGRxbPA4/HAy86GYpBjlUkRxt8LOkbBQ3hjEAggL29vdFWMxtTzOYkSAEgPRHPJg8QH4pkPJuYDkCKpP393ZecDMb8/gIIGQ1+Cdif1DXRLj3xWfSdNQokP5uIdADSpP1IoJQZNgoaYrChDG9bAr+E/ejKmnQkviPr9bwi+Vl0VWaSsJ9SZkQoaMg45oeE/XeaUCmxiO+ZNdRkMioKGmKwsVajAaDXhEqJjUdX1txtMiFuGzWZjICChox7d5tQKdiRrIBC9k5XkwlxSN0TY9rCjREUNGRILKVG09jYiOrqagOP9kPCtjgAQHqiP/xjUwAAcal7QDFjHBQ0ZEwpKyvD559/jmeeeQY///yz4SfG7EFqXI/v41JhaGVGN89G99XdBCPdaK0TMci9u/6bC7Vajfr6ehQUFOD06dP417/+hZKSEqjVarz88svDf+GcAigQY0AnsALHDoUilaXpaj+K5Gj4RydDnkadyN0oaIjBzLEzuKGhATt37sR3332HlpYW3S5306dPh6+vr+EvJIvHnRZTl/REvCNLMKBW44eEtD36jyxfBWliLuQABc0d1HQiFs3JyQnLly+Ht7c3+Hw+hEIhVCoVAgMD4eXlZeCryBCv65dhkPcahRoieS7SpSHwH865YxQFDRkSc6vRCIVCLFq0CCkpKXjwwQfR2dkJxhj8/PwMviOBLD4WKQAgTcLmGP1RqNj4IUaNIhnRsSmI20bNpp4oaIjF02q1CA4Oxu7du7Fy5UpIJBJMnjzZsJMVydjRlTI9JuYNMJFvkNeK9k9EaCozuCN5vKCgIRYtOzsbGzZsQG5uLjw8PPD2229jy5Ytepuh92+AtUx9TuQbgCwePP9DWCWnkOkLBQ0xmLl1BtfW1uKtt95CYWEhrK2tAXRtjrV+/Xrd/Z4GMthaJr+Ebega8R6kCSWLBy8WSGVpNIu4HxQ0ZEjMZcsHpVKJrVu3oqSkBLt27dIbYeLxeINvZmXQWqYY7OmeXJOyo58V3t0dySmI1ZtLE93P8eOTefzVEIvAGENnZ6epiwGlUom3334bZ8+exdatWxEWFjbEVxjC9g+6iXzpSHz2zsZXiuSeB2DPnZqe/hfVbnriMXOqCxOzpNVq8dprr+GLL77AokWL4O3tDTs7O7i4uGDChAnw8/ODj4/PiO76OBSfffYZ3nvvPWzatAl//OMfR+WaZGRowh4xCGMM1tbWmD17NhwdHVFcXIwrV67g9u3b6OzshEgkQkBAABYuXIiQkBBOt+8UiUSIj4+nkLEgVKMhg9Jqtdi6dStSU1Nx6NAhBAUF6Z7r7OxEaWkpFAoFFAoF8vPzoVKpEBAQgMcffxw+Pj5GLw9jzGyXRJC+UY2GGIwxBpVKpfeYtbU1/Pz84OfX1SHR0tKC/Px8fP/999i4cSNWrVqF3//+90YtB4WM5aGgIUMyWAVYIpEgIiICs2fPxpEjR/D555+jvr4e8fHxfd5r2xA1NTXYv38/li5dOoyOX2IOaNSJDImhLW0ej4cVK1Zg165dyMjIwEcffTSsOThtbW3461//ii+++AJtbW1DPp+YBwoawil/f39s3rwZx48fxz//+c8hn79v3z4cPXoUf/nLXzBnzhwOSkhGAwUN4VxwcDA2bNiAw4cPo7Cw0ODzvvnmG+zduxcJCQl4/PHHOSwh4RoFDTHYSAYoly1bhqCgIBw7dsyg42UyGV577TUsW7YMzz333LCvS8wDBQ0ZkuGGDY/HQ2xsLC5fvoy6ujrd41qtts/jS0pKMG/ePPzHf/wHxGLxsK5JzAeNOpEhGUmtJjIyEp6enjh48CCWLFmCU6dOwcfHBzExvZc7r1mzBqtXr4adnd1IikvMBAUN4RxjDBqNBjdu3EBdXR0OHz6MgwcPoqqqCv/1X//V5zm2trajXErCJQoaMiTDqdG0t7cjKSkJX375JVpaWqBWq1FTUwN3d3eEhoYC6Npk/MiRIwgKCkJISIixi01MjPpoCOdsbGzw0EMPwcPDA62trRAIBBAIBHB1ddWFyieffIIdO3agsrLSxKUlXKCgIZzj8XiYM2cOPvjgA8ydOxft7e3QarWYNm0a7O3tcfToUezatQsrV67EvHnzTF1cwgEKGmKwka6/DQ4Oxttvv40HH3wQGo0Gs2fPRnZ2Nt566y0sX74cL7/8sm6nPDK2UNCQITFG2Lz77rv47W9/C5VKhVdffRX+/v7Yvn07JBKJkUpJzA0FDRl1kydPxs6dO2FtbQ2RSIRt27bBycnJ1MUiHKJRJzIkxtq+yM3NDc888wwef/zxIdzojVgqChpiMvb29rC3tzd1McgooKYTGTWMMZw8eRI5OTmmLgoZZRQ0xGAjva/TqVOnsHHjRqSnpxuxVMQSUNCQUZGXl4c333wT999/v9G39iTmj4KGcK6oqAibNm2Cg4MD/vKXv9Aw9jhEncGEU/X19di+fTtqa2uxd+9eeHt7m7pIxASoRkOGZKh9NNnZ2SgrK8Nbb71FG4uPY1SjIUMy1KAJCwvDhx9+CH9/f45KRCwBBQ3hlLOzM5ydnU1dDGJi1HQiRnft2jXk5uYabRYxsXwUNGRQfD4ffD4fjDEIBIIBj83Pz8eLL76Ir776qt/9gMn4Q0FDBtXS0oK2tjYwxtDU1NTvcbW1tXjjjTcgEAjw1FNPDRpKZPzgMarfkj40NzfjzJkzOH36NIqKilBYWIjGxkb4+PjA19cX4eHhePjhhzFt2jQAgFKpxJYtW3DhwgV89NFHCA8PN/E7IOaEajREj0qlwrFjx/C73/0Or776KnJycuDo6AgnJycIBAK4uLigoaEBe/fuxZNPPondu3ejqKgI7733Hr7//nts27aNQmYQsngeeDweeLx4yIZyfLwhR5spRsgd1dXVbMuWLSwsLIy9+OKL7Pjx46y2tpYxxthrr73GgoOD2ZUrV5hKpWKZmZnsnXfeYdHR0WzOnDksLCyMffLJJyZ+B5YilcUBDACTJskHOTSOAWBAHEsdncJxgoKGMMYYq6qqYk8//TSbPXs2O3z4MFOpVLrntFote/XVV1lQUBBLT0/XO+/69etszZo1zMfHhx07dmy0i225dAEiZf1nzRACycxR04mgo6MD//3f/40bN27ggw8+wIoVKyAU3p1ixQboxgsMDERSUhJmzJiB7du34+rVq6NRZMsXsxlJUgBIR+KzyVD0cYgieQdSAECahP0JfqNaPGMzg6CRIZ7X3WY18Cu671+MZTC/93vkyBH885//hKenJ3x8fAw6p6GhAQ0NDdBqtfjxxx9RXV2Nq1ev4uOPP0ZnZyeHpR0r/JCwPwldWZOId+7tflEk49nEdABSJO1PgGXHjDkEjaIAQ90GSbpqueX+4M3s/ba0tGDfvn3g8/k4f/48nn/+eVy4cKHPYxljEIlE6OjowOuvv47Nmzdj8+bNSExMRG1tLWJjY3Hx4kWcOnWKo9KOMX4J2N9VrUFKbM+OYQWSn01EOgDEbYOFV2a6mLrtZhg5S5J2tVUhtexOMcOM3vs9ePAgi4qKYnv37mUJCQls0qRJbMaMGexvf/sbq6+v1x336quvstDQUHbq1Cn21ltvMQ8PD+bu7s6cnJzYkiVL2LFjx1hzczNbvXo1W7duHWtvb+ew1OYtNzeXnThxgrW0tBhw9N1+GMR1/ablSdIx0QHckwUEjZylxmHM/eD7N3rvV61Ws7Vr17InnniCMcZYW1sb27t3LwsODmZubm7s2WefZQUFBYyxrlGnoKAg9sc//pEFBAQwV1dXdt9997EtW7aw4uJi3Wvu3buXRUZGspycHA5Lbt6+/fZbFh4eztasWcN++OEHplQqBz5B1zEMFpd6N3jixtAfu9kHjd6HzrI73g0ymu+3srKSxcbGsm3btuk9fubMGfbII48wZ2dnNnfuXPb111+zzZs3My8vL+bt7c28vLzY4sWL2TfffNPrNTMzM1lwcPC4HoH64YcfmLu7O3N0dGS+vr5s3eMrrdAAABAgSURBVLp17Mcff2SNjY39nnP3965fuxkrzHr1tiw+GrFd3e5Iku9BzFhoqw5gtN9vQ0MDWltbe3UAL1iwAP7+/ti3bx/279+PrVu3wsHBAQKBAIwxhIeHY+3atZg9ezZu3LgBtVoNABAIBKitrYVQKERWVhb8/Pyg1Wp1o1Z9/be/x1iPkS7GmG7dVM/jej527xcA3bUH++rvNXqWoee6rYHKDwBZWVmYOXMmqqurUVNTg++//x5paWmIiorC0qVLsXjxYkyaNEnvZx6zOQnSlDv9MpAiaXOMYb9EC2G2SxAUydHw7+51l6eNjQ6xAZji/ebk5OCFF17Aiy++iN/97nd9HpOUlIR33nkHGo0GNjY2ALruySSRSNDS0qL3AeTxeNBqtWhsbISVlRVsbW0B9D08fm+Q9Pdc9/eDPXbvB97KygoajQYajabfoDP0/wd7rudjGo0GTk5O+PLLL3Hp0iXs2LEDWq0WKpUKbW1tcHZ2xiOPPILXX38dEyZM0HsN3d+ANAnyNMsfaerJLGs0PT90cancfuhk8bw7tYihiUtl2GOkf3RG8/32JBaLYWVlhYaGhl7Ptba24rvvvsOhQ4fA4/Hg4uKC1tZWaLVa3Lp1CxMmTIC/vz9UKhUYY+DxeBAIBGhoaMCVK1cwbdo0TJ48uVcQ3av7MT6f3+fjPYf5e35/73PdjwmFQtTV1eHixYuYM2cOJk2aBLVa3eexfD6/12t1l6O/6wxUtu7ry+Vy7N69G2VlZdBoNFAqlRCLxfi3f/s3xMTEIDY2Fi4uLob/onpSJCPa/xBWJYUiMfHuH64x/x65YHZBc/dDB8Slppn1D88YhvV+u//YRljzcXV1hYODA/Lz8/Uev3r1Kj744AMcO3YMEokEmzZtQmFhIb799lvY2dmhqakJIpEI69atQ2RkpK7mIBAIcOLECWzatAkbNmzA4sWLodFo+rz2vaHTVwj1fLzn8/2d2x0UjY2NePnll7FgwQKsWbNmaD8UI5DJZHj++efR1tYGsViMWbNmYfXq1Vi8eDHc3d2NcIV0JOZuA2N77lwwHrzYeDzO9sBcPy7mFTSy+B4fOvmQQ6bnh7ZLHFIH+eHH7GHo/n2NuhG+35FydnbG1KlTcf36dTQ3N8POzg5HjhzBzp07kZ+fj7lz52Lr1q2YP38+rly5guDgYEydOhWfffYZzpw5g40bN+LPf/4zHn30Ud1r5uXlYcKECQgLC4NIJBrdN3SHo6MjoqOjcerUKTz11FOjXo7W1lZYW1tj6tSpWLVqFZ5++ulefTIjc08fjn8IpDiEAgXMth/TfIJGFg/enTaMNEmOPUP+iSlw7FAoUlmaLlgUydHwj042z/buiN+vcaxYsQJpaWn47LPPUF9fj88//xwAkJiYiHXr1mHKlCkAgPDwcN2q7PDwcHz66afYt28f1q9fj/T0dLzyyiuwtbXFiRMnEB0dbfK7HSxbtgy//PILcnJyMHv27FG99sSJE7FhwwYsX74cAQEBo3pts2Wk0auRkScxKReLx+RJTGqOc29G+n7lSUwKKYuL657YNfw5N2q1mj3//PPMy8uLubu7swceeID98MMPTK1WD3qeTCZjc+bMYU5OTuyxxx5j69evZw888ADLysoaRkmMb+vWrezAgQOjft2eC1KHQjdRT5rE+v2ruPO71/uz6esxM2MGSxCSEe3fNawnTZIjzZg9ofJcpEtDMND++3f3Bhna17C3BjHa+01HTsh+3ehLalwKYodRKIFAgPj4eDg5OcHd3R3/8z//g4cffnjQ3fEEAgGWLVuGAwcOYM2aNbh06RL+7//+DytWrDCb26r4+/ujurp61Pcu7rkglXQxbdD0+NAhLtW4IaNIRnRsCuK2mVGzyajvV4pVy++eH/N4HJBy2KCNlO4VERGBhIQEKJVK/Pzzz0Pa69ff3x+PPvoo7O3twRhDeXk5WlpahlEK45syZQrq6upokac5MFldSt57jYfxXruraWJWkyuN+X45qD4rlUr2/vvvs8DAQLZp0yZWUlIy6DltbW3s73//O7v//vtZXFwc++yzz1hkZCR75plnDDqfa5cuXWKvvPIKa2pqGvK5ZWVl7OLFi0yr1XJQsvHHRHU8GeL9Y3V7bciNOdwiiwcvNgdJcmZGk/w4fL/d5LlIRyi2DfM9W1lZ4ZVXXoGnpyf27NmDP/zhD1i2bBkWLFiAyZMnw97eHgKBAG1tbaitrcXly5dx7NgxFBYWYtmyZUhISMDEiRMxefJkvPnmm1i/fj22b9+OmTNnGvd9DkF3848No+lUWlqKurq6fofdyRCZIt16resw5MuQWkBqnFkuvDT6++1Ve7mz2ttIVbjCwkL24Ycfsoceeoj5+/szqVTKHn30Ufab3/yGLVq0iE2fPp2FhYWxP/3pT+yXX35hGo1G7/z8/Hz25JNPstmzZ7OjR48apUzDkZGRwRITE4dco1Eqlezw4cMsLy+Po5KNPyap0RQMdUMWANKQnl26MqDX7BgZ4u8MF8fyek71NfUSBoUR3m9f0pHoz0Ni97dxqWBGqin5+Phg/fr1eOKJJ5CVlYW8vDxUVVVBrVbD2dkZvr6+CAsLQ0hISJ/nBwQEYPfu3XjttddQXFxslDINR0NDA2xsbGBlZTWk8+rq6lBeXo7ly5dzVLLxx2zXOhHL197eDsaYbs3TaPv000/R0NCAjRs39tsEqqmpQXV1NYKCgnSjRdeuXUNmZib+8Ic/QK1W49atW5g0aRLdp2oETD+8TcYsGxsbvZApLy9HXV3dqF0/Pz8fnp6e/YZMWVkZLl68iJMnT+LTTz/VjU6VlZXpJvl9++23iIuLQ3Z29qiVeyyioCGjQqPR4OOPP8ZLL72EgoICzq+Xk5OD0tJSzJo1q8/n1Wo1srOzER4eDh8fHxw/fhzNzc1gjKGtrQ0eHh4AADs7O1RVVaG8vJzzMo9lFDRkVAgEAjzyyCO4desW1q5di7S0NE6v99VXX8HT07PfJQAlJSUQi8Xw8PDA5cuXMXHiRDg6OqKurg62trYQi8UAupYyrF69GnZ2dpyWd6yjoCGjJioqCnv27IGnpyc2btyI1NRUTq6Tm5uL3NxcPP300/32q7i5ueH+++9HcXExfvrpJzzwwAOwsrJCXV0dxGKx3kJMHx8fTJ48mZOyjhcUNGRU+fr64uOPP8b8+fOxadMmpKSkDGkm8mAYY/jyyy8xb9483H///f0e5+DgAHt7e5w5cwaMMURFRQEA6uvrIZFIdPvSlJSUoKGhAVOnTjVaGccjWpRBRp2rqyu2b9+OSZMmobOz06hrkb755hsUFRXhhRdeMOj4rKwsTJ06Fffddx8AoLGxUff/SqUSly5dQmRkJK1fGiH66RGTsLGxwebNm6FWq402bHzmzBkcOHAAL730Ery8vAw6x8nJCXK5XLfvsVqthre3N5RKJc6fPw8PD49+5wsRw1HQEJPqWVO4fv06+Hz+oHu4qNVqaLVavX6Uy5cv48MPP8SaNWuwdOlSg6+/atUqlJeX429/+xs8PT1RWVmJiRMn4tatW3BxcUFkZOTQ3xTphfpoiNn4+uuvsW7dOpw+fXrA4zIyMvDuu++iublZ9/2uXbuwdOlSPPnkk0O6ZmBgIHbt2oXJkycjIyMDra2tuH37NkJCQhAVFUWT9IxE8MYbb7xh6kIQAgAeHh7Iy8vD559/Dnt7+373tTl48CA++OADWFtbo76+Hh9//DEWL16M5557bliLIK2trRESEoLm5mY89thjmDVrFpycnEb6dkgPtASBmJXm5mbs3r0bX375JZ577jm8+OKLenNYamtrsXLlSuTm5sLW1hbBwcH405/+hMWLF4/ourdu3cLx48dNspn5eEB9NMSs2Nvb4z//8z/h4uKCpKQktLW1YcuWLbp7Sv3jH/+AXC6HjY0NOjs70dnZaZSh57q6OhrC5hDVaIjZ+te//oXKykqsXbsW1tbWqKqqwpo1a5CRkQGxWAy1Wo3W1lYsXLgQ//u//6vbSH04GhsbIRQKaQYwR6hGQ8zWihUr9L5PT09HVVUVJk2aBCcnJ0yYMAETJkyAi4sL6uvrRxQ0jo6OIy0uGQAFDbEY1dXVkEqlWL16Ndzd3eHo6AhXV1caGbIANLxNLIZIJMKvv/4KuVwOf39/TJw4kULGQlCNhliMlStXorKyEu+//z6qqqqwYcMG2Nvbm7pYxADUGUwsCmMMX3zxBd5//31ERERg69atmDZtmqmLRQZBQUMskkwmw5///GfMmDEDycnJcHFxMXWRyACo6UQsUkxMDFxdXZGVlaXb0oGYL6rREEI4R/8UkDEjPz8fR44cMZtb8pK7KGjImFFcXIzXXnsNr7/++qjebYEMjoKGjBkLFy7Em2++iRMnTiAhIUF35wKtVovvv//epDezG+8oaMiYIRKJsGLFCnz00UcoKipCfHw8Ll26hIMHD2Lr1q24fPmyqYs4blFnMBmTCgoK8Ne//hXXr19HU1MTysvLsW7dOrz33numLtq4RDUaMiYFBATgueeeQ0NDA27fvg0bGxucPXsWeXl5pi7auERBQ8ak69ev4+2330ZtbS0EAgGEQiEKCwshk8lMXbRxiYKGjElFRUUQCoWYPHky7OzswOPxoNFoIJPJUFVVZerijTvUR0PGJI1GA41Gg/r6esjlcuTm5kKhUKChoQHx8fGIiIgwdRHHFQoaMq40NDRAIBDQqu9RRkFDCOEc9dEQQjhHQUNID7J4Hng8Hni8eBgyPqU7Pp5GswZCQUNIDzF7UhEHAEjBjmTFwAfL4hGbAgBxSN0Tw3nZLBkFDSF6YrAntStq0hOfRf9ZI0N8V8pAmrQZFDMDo6Ah5F4xm5EkBYB0JD6bjL6yRpG8AykAIE3C/gS/US2eJaJRJ0L6okhGtH8i0gHEpTLotYx0z0mRJE8D5czgKGgI6YciORr+iekA4pDK9txpHimQHO2ProdTwahvxiAUNIT0S4Z4XmxXE+lOqPQdPmQwFDSEDEQWD96dTt+41FQgtit4ejWnyIAoaAgZhCyed2cY+w5qMg0ZjToRMoiYzUmQ6r6TImkzhcxQUdAQMhi/BOxPuhM10lVYTqNMQ0ZBQ4iRKJKj7yxfGNoyhvGAgoYQo1Dg2KFQpDIGdudLnpSD2Oi+J/yNNxQ0hBiFHxLS9Ie7/ZavgjQ9F3KTlcl8UNAQwhV5LtKlIfA3dTnMgNDUBSBkTFIkIzo2BXGpDNR3TDUaQozvzlqoUJrUp0M1GkKMSRYPXmwOkuSMFlv2QDODCTEWWTx4saA1UH2gphMhRtG9EVYKYvXm0kQPsHnW+EE1GkII56hGQwjhHAUNIYRzFDSEEM5R0BBCOEdBQwjhHAUNIYRzFDSEEM5R0BBCOEdBQwjhHAUNIYRzFDSEEM5R0BBCOEdBQwjhHAUNIYRzFDSEEM5R0BBCOEdBQwjhHAUNIYRzFDSEEM5R0BBCOEdBQwjhHAUNIYRzFDSEEM5R0BBCOEdBQwjh3P8DrZGK6yIRPNIAAAAASUVORK5CYII=;" vertex="1" parent="1">
                    <mxGeometry x="610" y="339" width="282" height="258" as="geometry"/>
                </mxCell>
                <mxCell id="55" value="" style="shape=image;verticalLabelPosition=bottom;labelBackgroundColor=default;verticalAlign=top;aspect=fixed;imageAspect=0;image=data:image/png,iVBORw0KGgoAAAANSUhEUgAAAN8AAAD7CAYAAADqxEEMAAAgAElEQVR4nO3dfVTUdaLH8fcMDAMMiM8KgoCAIj7kYypo21nbWnCvqZVtetYtK7i2uqLlbc+xW5vrni3LgjW3YHX31G55V+vmPQlomVYreCzLJxyBGQFBngR5FoZhZn73D2TiUQYEfsPM93UOJxjm95vv2Hz4fn/fp59CkiQJQRAGnVLuAgiCsxLhEwSZiPAJgkxE+ARBJiJ8giATET5BkIkInyDIRIRPEGQiwicIMhHhEwSZiPAJgkxE+ARBJiJ8giATET5BkIkInyDIRIRPEGQiwicIMhHhEwSZiPAJgkxE+ARBJiJ8giATET5BkIkInyDIRIRPEGQiwicIMhHhEwSZiPAJgkxE+ARBJiJ8giATET5BkIkInyDIRIRPEGQiwicIMhHhEwSZiPAJgkxE+ARBJiJ8giATET5BkIkInyDIRIRPEGQiwicIMhHhEwSZiPAJgkxE+ARBJiJ8giATET5BkIkInyDIRIRPEGQiwicIMhHhE6waGxuprq5GkiS5i+IURPgEADIyMsjIyMDV1RWFQiF3cZyCq9wFEORjMpnIy8sjIyMDDw8Pli5dipeXl9zFchoifE6qqKiIc+fOUVxczKxZs5g/f76o8QaZQhINfKdSV1eHVqslOzsbb29voqKiGDt2rNzFckoifE6ioqKCyspKCgsLqaurIzAwkIiICNRqtdxFc1oifA7OYDBw5coVJEnCaDTS2NhISEgIAQEBopkpMxE+B2UwGCgpKeHGjRuo1Wo8PT2pqqoiLCyMkSNHyl08ARE+h2MymcjNzaWurg5vb288PT0pLy9HpVIREhKCh4eH3EUUbhPhcyClpaXo9Xo0Gg2hoaHcunWL7OxsQkJC8Pf3l7t4QgcifA6gvLyckpISDAYDgYGBjBs3juzsbCorKwkLC2P06NFyF1HoggjfALJYLCiVAzeJqLKyEp1Oh4uLC+PHj8ff35+amhouXbrEiBEjCA0NFb2ZdkwMsg8gSZK4dOkSHh4ehIaG9tt5DQYDBQUFlJWVMWLECKZPnw60DJzrdDoCAgIICQnpt9cTBoYI3wBycXHBx8eH1NRUVCoVgYGBd3U+o9FIfn4+NTU1aDQa5syZg0ajwWAwkJOTg9FoZPbs2fj4+PTTOxAGkmh2DoL09HQKCwv5xS9+0ee5k3l5eRQUFDBq1CiCgoKs56muriYzM5MxY8YQGhqKi4tLfxZdGEAifIPgxo0bZGZm4urqyowZMxgxYoRNx0mSxI0bN6ydKQEBAUyYMMH6+9zcXEpKSggMDBS9mUOQCN8gaGxsJCsrCy8vL6qqqpg6dSre3t53PObmzZvk5ubi6urK2LFj8fX1tXbeGAwGLl++jKurK8HBwQwbNmww3obQz8Q13yDw8PBApVLh4uKCn58fWq2WGTNm4Onp2em5DQ0N5OfnU15eTlBQUKfrxLKyMrKzsxkzZgzh4eFiitgQJmq+QdLU1MSJEyd44IEHyM7OprS0lIiICPz8/ABobm62zkzx9PQkKCioXTjNZjO5ubncvHmTwMBAfH195XorQj8R4RtEp06dQpIkLBYLpaWlSJLErFmzaGhoIC8vj+nTpzNp0iRUKlW74+rr67l48SLu7u5ERETg7u4u0zsQ+pMI3yC6fv06J06cYOXKlXh7e1NXV4dOp+PmzZt4enri5eWFu7s7gYGB1oCVlZWh1+sZN25cv44VCvIT13yDSKPRoNFosFgsAHh7ezNnzhygpVn69ddfYzKZqK6uxsfHB7PZjNFoZMqUKWKKmAMS4RtEHh4eXQ60t47VBQcHExoaitFo5OLFi1y/fp2oqCgRPAclwjeITCYTAK6uLf/skiRx7do1CgoKGD58OCNHjsRkMqFWq5k/fz7+/v7o9XqMRqMYx3NAInyDpLGxkfT0dFQqFRqNBqPRyOXLl7l58yZms5nhw4dTXFyMVqslKCiIgIAAfH190Wg0ZGVlIUkSAQEBcr8NoR+J8A2C+vp6Lly4gJ+fHwqFguLiYoqLizGbzQDMmTPH2rSsrq7m3Llz1jHBYcOGMXz4cKqrq0X4HIzYNHeAVVVVcf78eSZNmkR4eDjFxcXo9XoCAwPx8vIiPDycMWPGoFAoUCgUjBgxgtmzZ1NQUAC0hLGyspJJkybJ/E6E/ibCN4Bu3rzJ999/T2hoKL6+vigUCoYPH24NnMVi6XIFwogRI3Bzc7MG19/fH41GI8M7EAaSaHYOkBs3bqDT6Zg1a5a1SalUKvHx8UGtVmOxWKxDCV25desWFy5cYOLEiaKzxUGJmm8A5Ofnk52dzdSpU9sNE9y8eZOsrCyMRqM1iNnZ2RgMhnbHnz59mvz8fMaPHy+amw5M1Hz9LD8/n6KiImbNmmVduSBJEtevXycrK8u6+BUgKCiI+vp6zp07x6RJkzAajZw/f56rV68SFRXFlClT5HwrwgAT08v6UVZWFrW1tURERFgXuzY2Nlo3rY2IiMBisXDhwgXmzp1r3V+lrKyMCxcuUFJSgo+PD4sXLxYD605A1Hz9JDMzk8bGRmbOnNluXmZmZiZBQUEEBQVZV5krlUr0ej1+fn4UFRVRUlLC6NGjmT9/vs0LbYWhT9R8d8lsNnPlyhWampqYMWMGbm5u1r1WKioqCAkJYdy4ce2OaWxs5KuvvsLT05MJEybg6+uLh4fHgO50JtgfEb670NzczIULF1CpVERERKBSqaiurkan06FWqwkJCel2iECSJLEQ1smJ8PWRyWTi4sWLqNVqpk2bBrRs3Xf16lWCgoKYOHGizCUU7J0IXx/cunULrVaLRqMhIiKC5uZmsrKyaGhoEDciEWwmwtdLrYPfvr6+BAcHc/PmTc6fP8/EiRMJDg62rlgQhJ6I8PVCTU0NV65cYfz48QQFBZGbm0tRURFhYWGMHz9e7uIJQ4wIn40qKirIzs62btWXlZWFSqUiNDRUzLsU+kSEzwat08KmTJmCUqkkMzOTgIAAgoOD5S6aMISJ8PWguLiYgoICJkyYQFNTE5WVlQQHBzNmzBi5iyYMcSJ8d3D9+nVKSkoYN24cZWVleHt7ExwcLG67JfQLEb5uFBQUUFBQgI+PD7W1tUycOFGsJBf6legX70J+fj75+fnWGSgzZ87s8d4KgtBbInwdZGdnk52djVqtZurUqfj7+4s5l8KAEJ+qNr7//nu+++47fHx8mDt3LhMnTnSa4OkTo27vIxNHWnfPSYu7/Zwo4rp7kmAzcc1329dff41Op2PBggVMmTIFNzc3uYs0yNKIU8SQDEQm6Ejf3H5ren1aHGExyUAksanpJEXLUkiH4vThMxqNpKamUlhYyIoVK5y7UyUtDkVMMhBLqpREdKfHITZVEsHrJ04dvrq6Oo4fP05TUxMPPvigmBCNnsSoMOIz2tR+IngDxmnDV1dXx7lz5/Dw8GDu3LlOc23XI30iUWHxZBBJQsJ0DsYnk4EI3kBwyvCZzWbKy8tRKpWMHTtW7uLYnbQ4BbcrO0AEb6A45Z/71tCJ4HUtekWs9fvYBF33wdMnEhUVR1yUwrrjtiIqEf3gFHPIc8rwKRQK0czsTlocUW2qveSDKd2HSaclIyOTiPclJElCknQkEM8bYhjCJuITKPzodvAyiCQ2NZVYgIzuw5R2OJnY1HQ2ixvm9okIn9DCGjxuj+NFsy0hEoDknV01JfXkZEYSEdb2MR3ajFhWiOtDm4jwCR2C92PnSujml6y1368TO8ZPhzZjOpPb1nr6HDIjIwhDsIkkOLfUWCkSJECKTdV1+XtAglgptePjse0ekXQJkVJkQhfnELrUu5pPn0jU7bl9nf4QdiEtTtHjfEFBXj/WeDqSoru4eIveRkvrM5mdbf6n63MyiWzf5kSnzWD6ZHEBaKtejvP9OAOC2FSkOwz+6BOjCIvPACJJ0ImLckHoqJfXfKEsW91yEU7y4e5rs7S428FD9IYJQjd63eESumw1t/vAONxV+vSJ1nGiyDsN0AqCk+t9b2foZl66PQEiuVP60ogLiycDIDa107IUQRB+1KehBuv0o+SdbTpe9CRGtawHIzIBnajy7MatW7fIzc1Fr9dTVFQkd3GE2/o4sbrzwkvrZNzIBHTpmxF1nvwqKys5evQox44dQ6/XI0kSGo2GhQsXEhMTw6JFi+Qu4qAxm800NjZab1pqD/q8qqFt2FJXHySmpQu0/SLMQdLU1CS28+sgPz+fHTt28OWXX9LQ0IBKpUKhUGA2mzGbzfj7+/Pcc8/x7LPPyl1Up9X3JUXWdV+tBn9IITc3l48//pipU6fyH//xH4P3wnaurq6O559/nsOHD+Pm5oZKpWr3e0mSaGxsZNiwYbz++uusWrVKppI6t75PLwtdRuuoAwzukIJOp2P37t08+eST7N69m9ra2sF54SHis88+IyUlBbVa3Sl40LKqw9PTk9raWpKSksjLy5OhlMJdbB3YMuYXn5EBkQlsG4S2ZllZGR9++CGHDx8mLy+Puro63N3dZWtytm00tH7f3X/78ljH73v6WaFQUFlZyYEDBzCZTHh6et6x/O7u7ly6dIkzZ86I+07I4C7CpyflYEujM3L1sjt3sOgTifq1lukkk9zaTrWxY8ZisZCXl8fJkyc5dOgQly5dQpIkXFxcuO+++/Dz8+P06dNcu3bt9pqyHz/Mrd9bLJZ252v7+7ZfXf2+9WeLxdLuOR2P7fi8to939f2dztVdeTr+t+3zoCV8jY2NZGVl4eHh0cO/bMuiYpPJxHfffcdjjz2Gi4tLj8cI/ecuwqdDeztIPc7nu73ocrVOQgqF1mlqb6RttmkQ/syZMyQkJFBYWIinpycqlQpJkpgxYwb33nsvu3fvRqvVdmpitb3neevi2dbHWlded/xeqVTi4uKCu7s7JpMJk8nU6Xkdv1p/p1Qq2z3e+nPHx/v61V25237V1NRgNpttXizs6uqKXq+nqampx5pS6F99D58+h0wAOq7p6qxl0aXUp2tCpVLJihUrmDlzJn/96185ceIEN2/eBODgwYMcOXKEDRs2sHz5cmstYctK9bbB7PhYY2MjeXl5+Pr6dtrRrO1xHc/R1e9seY6tP9tyvsOHD/PCCy/g5ubW5fFd6ViDCoOjz+HTpxxs6emMXM2yO7c5WxZdbmv7WO8WXXp6ejJ9+nQSExM5c+YMKSkpnDhxgqysLGpqahg5ciR+fn59fSudfPvtt2zdupXf/va3PPXUU/123sEwbdo0VCoVFovFpmak2WwmJCQEd3f3QSid0Fafezt1P7Y5e7hu699FlwsWLOD3v/89+/btY9u2bUyaNAmTydSHM3WvsrKSqqoqKioq+vW8A81kMtHY2Eh4eDhGo7HH50uShEKhYN68eeJ6TwZ9rPn05LS0OTut6eok7TDJsStIant0ykFY/X6fZ8EolUrCw8MJDw/nkUcesbl51Zvzu7i4DKkPZGFhIbt27aK6uprly5eTlZWFyWTC1bX7/8UGg4F77rmHyMjIbp8jDJy+1Xz6FFo6OiNZfec254AvugwNDSUkJKRfztXK1dUVhULR7zXqQDl8+DDr1q1Dq9Wydu1aVq9ezUMPPURTUxMmk6nL4Ynm5maGDRtGbGysGGaQSd9qvtDNpEubbXxqOukdHotOkgZ9ClpveHl54ebmRk1NjbVpZo+qqqpISEjgH//4Bz/72c945ZVXrNe+L730EgaDgRMnTmAwGFAqlbi5uWE2m2lubsbV1ZUXXnhBzG6Rkbg/XxeGDx+OWq2moqKC5uZmu7xjkclk4k9/+hOff/4527dvZ926de2GWiZOnMiePXv4+OOPrXdgKi0txd/fnzlz5nDu3DnKysrs+o+Lw7vLPWAcUllZmbR48WLp4Ycflqqrq+UuTpfMZrP0zTffSGfOnOnxubW1tdLx48elOXPmSC+99JJkMBikDz74QAoNDZX+9a9/DUJpha6IrQO7MHz4cEJCQigqKqKsrEzu4liVlpbS0NAAtHQKLVmyhHvvvbfH47y9vQkPD8fd3R2NRoNarWbNmjU88MAD/OUvfyErK2ugiy50QYSvC25ubsyfP5/CwkK0Wq3cxcFgMPD3v/+dDRs28MMPP/TpHE1NTe2mwbm4uPDf//3fuLu7c+TIkf4srmAjEb5uLF68GB8fH9LS5N30sKSkhOeff55XX32ViIgIJk+e3OdzSR16Pf38/EhISGD58uV3W0yhD0SHSzdmzpzJz372M44cOcKpU6dYvHjxoL5+Y2MjJ0+e5O2338ZgMPDWW2+xcuXKu+4c6Xh8eHj4XZ1P6DtR83VDoVDwxBNPoFarefvtt6mpqRnU109JSeF3v/sdU6dOZf/+/axatequgtex1hPkZ5fhMxgM1o4FOS1cuJBVq1bxzTff8OGHHw7qa4eEhPDqq6/y5ptv3lVTs6PuAmyxWHjvvffYt29fv72WcGd2Gb4LFy5w4cIFuYuBi4sL69evZ/Lkyezdu5dTp04N2GvV1NRgMBisP8+ePZuVK1f2+xhjd+FTKpU0NDTwxhtvcPz48X59TaFrdhm+69evM27cOLmLAUBYWBi7du1CqVTy/PPPc+7cuX5/Da1Wy9NPP01SUtKANg97Ovf69euZPXs2b775JqWlpQNWDqGFXYavrKyMoKCgQXmturo6Ll++bF3BcOPGDXJyctrVQlFRUezYsYPS0lI2bdrE2bNnrb/75ptvSEpK6nReWxiNRv71r38RGxtLbW0t06dPH7DZJraEevjw4fzhD3+gtraWd999d0DKIfzI7sKXmZlJQEDAoN22+eLFi2zdupXvvvsOSZI4cuQIr7/+unXBbquVK1fy+9//nmvXrrF582b+/e9/U1BQwOuvv87777/f602Irl27xvPPP8+OHTu4//77+fvf/87SpUv78611qadwh4WF8dvf/pb//d//5aOPPhIdNQPIboYaysvLuXr1KseOHWPs2LFotVrCw8MHPIQBAQEYjUYaGhpQKBSEhYVx/PjxLlc0PPXUU6jVal599VXi4+Px9/fn0qVLAHz11Vc2rw44d+4c27Zt49atW7z22mv84he/GLT5lba8zooVK0hPT+fYsWOsWrVKLLQdILKHr7Gxkc8++4z6+nr8/f0ZNWoUs2bN4uTJk5w8eZKnnnqqy71FamtrKSsrIzAwsF2nhMVioaKiAqVSSXNzM/X19UyaNAkXFxcKCgq4efMm48aNs87+d3d3b3d+b2/vO3ZyrFmzBldXV3bu3MmwYcMICAggJyeHY8eO8cgjjzBs2LAe37NGo2HJkiWsXLmSmTNn9uafa1C4u7uzfft2mpqa7HJSuaOQNXy3bt1i165deHl58fTTT2M0GlEqlSxatIiwsDA2btyIWq3mmWee6XTs119/zZ49e9i7dy9hYT+uF6yoqOCdd96hqqoKX19fcnNz2blzJ5mZmZSXlzNy5EgOHDjA8uXLWbx4caf9S9rudNYdFxcXzGYzBoMBhUKBm5sbZ8+e5fTp0zz00EM9Hj958mReeeUVG/+V5DF+/Hi5i+DwZL3m+9vf/sbZs2d56qmnGDlyJBUVFdYmzujRo/H39yc9PZ3m5uZOx95zzz1s3LixU6+ot7c3o0aNIi8vj2XLlrFx40aysrI4cOAAS5Ys4aGHHiI4OJi9e/dSVVXV67/s58+f56233qKoqIgTJ06Ql5eHSqWirq6ODz74oNP2DfX19bz77rskJSXJvjhXkqQ+NeNra2uH3JYaQ4Fs4SspKSE1NZWf//znjB49GmgZ6/L29rY+p7q6GhcXly6vUyZOnMjy5cs7NfM8PDwYM2YMkydP5p577mHWrFmcOnWK2tpa61/zqKgorl27xuXLl3u94a7RaGThwoUsXbqUsLAw1Go1tbW1GAwG0tPTOXnypPW5Fy9e5LnnnuO9994DbLveskfvv/8+//Vf/yUC2M9ka3YWFhYiSRLz5s2zPlZbW2u9FisuLqagoIBHHnnkjvuQdMVisaBUKq0LRevq6qivr8doNOLq6opGo8Hd3b3LJmbbfTG7cu+99zJv3jwaGxspKioiMzOTnJwctFot58+f5+jRo0RGRvLFF1/w2muvMWLECBITE7n//vt79R76W2vTui9/AObMmcPf/vY3/vGPf7Bly5b+LprTki18Hh4eqNVq6yZF5eXlGI1Gxo4dC8D//d//ERISwurVq7s8vqKigsLCQsLDwzvtztx6O6jWD9qiRYtIT0/nwoULLFq0iJKSEsLDw5k2bRrNzc3W5TbQ8iFtvZbrjlKpRKPRMHnyZOvUr4aGBgoLCyksLOTll1/miy++IDo6mi1btvTrtoZyiIqK4rnnnmPv3r3MmTOHn/zkJ3IXySHI1uwMDQ0lLCyMjz/+GEmSKC8vx8XFBTc3N/7nf/6HoqIitmzZwogRI7o8/ttvv2XHjh2UlJS0e7y2tpaSkhKqqqrQarVIkkRMTAyrVq3i0KFDpKSkcOXKFdauXcuoUaO4evUqKpWKsrIyqqurycvLw2AwkJ+fj9lstvn9eHp6MmXKFBYtWsTo0aN5+eWX+dOf/mR3wetLzVdcXExtbS1Go5E//vGPFBQUDEDJnE/fbxHWD4qKivjggw+YOHEi9fX1GAwGAgICKCsr4+GHH77jB7ekpISsrCwWLlzYruarqKiw3rdBo9EQHh6OQqFAkiROnTpFUVER8+bNIzQ0FEmSyM3Npbq6GpVKxbhx47hx4wYGg8Fas9nS5JWGwD4oOp2OtWvXsmbNGuLj4206pqqqii+//JJ3332X4uJi1q5dy9GjR1m4cCE7d+4U4393SdahhgkTJvDiiy9y9uxZjh07xoMPPoifnx8BAQE9Huvr64uvr2+nx0ePHm3twGlLoVCwZMmSTo913Hawt3NKv/zyS9LT03n22We7LI+9sPVvrCRJlJWV8c0333D48GFOnz5NTU0NEyZM4IEHHmDOnDl8++23GI1GEb67JPsgu1KpZNKkSQQHB7NgwQK5i2OzpqYm9u3bx1/+8hdmz55t0w7R9qCnGtpisfDhhx+SkJBAU1MT7u7ueHh4oFKpcHV1JSYmhp/+9KcieP1A9vBByy2MJ06cKHcxbJaZmcmePXs4ffo0a9asYcOGDZ1uqGKvegqfi4sLjz76KA0NDRw4cIDKykoUCgUeHh7WwIng9Q+7mFjt5uZGaOgg3k+6jyRJ4uOPP2b9+vUUFBSwe/dutm/fPmSCZ+u1aWBgII8//jgajYZRo0ZhsVhQKBSdxkSvXbs2IEusnIVdhG/mzJl21yvYFYvFQm5uLgsWLLDuEu2I6uvref311/Hy8mL//v1s3bq10xxaaJnit2nTJrtY+DwU2UWzc6hwcXFh06ZN1uufoainmk+SJBITEzl//jyvvfYaCxcuZOHChVy9epVRo0a1e+6DDz7Ip59+yo4dO3jvvfcYM2bMQBbd4dhFzWevysvL2bdvH1evXrU+5uHhMWSD1xOz2cybb77JRx99xNatW9vV7CEhIXh5ebV7/vjx43nxxRfJzs62TqETbCfC142zZ8+yadMmkpOTuX79utzF6Tfd1Xy3bt3ijTfeIDk5mWeffZYnnnjCpvMtXLiQ3/zmN3zyySecOHGiP4vq8ET4OjAYDOzdu5fY2FgsFgt79uwZ9D07B1JX4cvOzmbLli0cOnSI7du3s3Hjxl6tfli/fj0LFiwgISFB7P3SC47Zfuqj1rV/p06d4sknn2Tz5s1oNBq5i9UvWtcttm0y19XVceTIERITE1EqlezcuZPo6N7fvE2tVrNp0ybOnDnTqWkqdE+Er41Tp05RUlJCQkICMTExchen3ymVSurq6sjMzOT06dN8/vnn5OXl8dOf/pS4uLi7usno9OnTmT59ej+W1vHJOrfT3lRXV2MwGBxyFXdOTg5PPvkkDQ0NeHt7Y7FYWLhwIb/85S+ZO3fuoG1YJfzIaWs+SZI4c+YMHh4e3HPPPUDL1nmOzGw2M27cOB577DEefPDBAZtVlJOTww8//EB0dDQ+Pj4D8hqOwOH/3N26datTb2VFRQV//OMf+c1vfsOZM2dkKtngkiQJs9nML3/5S5555pkBnc5XUlLCjh07eP/99wfsNRyBw4dPq9WyZcsWLl++DMClS5eIi4vjo48+4plnnmHNmjUyl3BwdbUfTn+LjIxk7dq17N+/v8/3E3QG8oVPn0iUQoFCEUWivuenp8Upbm/xEEdv7ph3/PhxTpw4wdtvv01SUhLr16/HbDZbbzbpLL1z/XVp39DQQE5Ozh03g1KpVGzcuJFp06bxxhtvDPodnoYK+cIXuozVkQAZxL9x5zjpE6OISQaIJEGXhK2d4deuXSMlJQW1Ws3Ro0fZu3cva9asYf/+/UNq+VJ/uttFv9XV1Vy5cqXHDhofHx+2bNlCdnY2u3fvHjJLrgaTjM3OUJa1pA+SD3dfm6XFERafAUBsajqbe7H44Z///Kd1mwiTyYRKpWLp0qWd5ig6k7sNX2FhIaNHj7apd3T+/PmsW7eOlJQUMjMz7+p1HZGs13yhy1bTEr9kDneVPn0iUS1VHpEJOpJ6Mf578eJFDh06RFNTE83NzSgUCnJzc3nllVccarrYYNPpdDbtNNBq3bp1/OEPfxhS6zUHi7xDDaGbeSk2nphkSD6cRlK72RVpxIXFkwEQm0p6L6o8i8XCsWPHaGxsZPLkyfj5+TFhwgT8/Pzw9fV16jGtvtZ8JpOJ8vJyampqUKlUNh83cuRIh5yw0B9kH+eLXhELycmQvJPEbdG3m5V6EqNiaLnMS0DXmyqPlvCtXLmSRx99lDFjxqBSqVCpVE4dur5qamri+++/p66ujkuXLlFfX89XX33FmDFjuO+++3q943dzczOurq52v+HUYJD/0xi9glgAMjiY0tLtmRYXRnwGLcFL30xv17i7uroSGhpKcHAwXl5eqNVqpw9ex3tS2KKuro6kpCS0Wi2TJk0iMDCQ6OhoFi1axGeffUZyco2JKzsAAAhpSURBVHKvzpmVlcW2bdvE9d9tdvCJjGZFS/rIOJhCmrVnM5bUPgRPuDNbaxyLxcKf//xnSktL+dWvfkVoaCienp4EBAQQFBREdHQ0R48ebbfWsSfe3t5otVr27NkzKOON9s4OwgfR2xJaOl4y4olpqfJ6NaQg2KanrfDbOnr0KJ9//jmPP/44arWa0tJSFAqFdVvG0aNH09zc3KslRBMmTOB3v/sd3377LX/961/79B4ciV2E78cxvxY2DymkxaGI682Qu3OzdQMlk8nEF198gZ+fHzNmzABadgL38PCwXuNlZWXR2NjY631O77//fh577DHeeecd0tPTe/8mHIh9hK/tmF9kAtt6qvLS4lr+isckE7tC1I/9zWw2U19fT2BgoPVaue0dpJqbm/nyyy+ZO3dur5chKZVKNmzYQHh4OLt27aK4uLjfyz9U2En49KQcbBlIj1y9rOfrvOgkJElHQmQkEWE9PVnoLbVaTVBQEKWlpdY7OdXX11s3SPrkk09wd3cnPj6+Tx1ZI0eO5OWXX8bDw4PCwsJ+LftQYifh06FtyR7TJ9vaxaJDmzEdm58uALZ3uPz6179GrVbzySefUFNTQ0lJCUqlkkOHDqHT6di+fTuBgYF9LsesWbN45513rMu5nJF9hE+fQ0vncy9qsrTDJMeuEJ0yvWRr+Pz9/XnllVeQJIlPP/2U/Px8zp8/z8iRI4mPj8ff3/+uyzJ69Gin3v3aLsKnTznYMpMlcjXLbKzJ9DmZRIo2p836Ms7n5+fH6tWrUalULF68mGXLlrF06dJ2dw/ur7LduHGjX885FNhF+HQ/tjltHtfTaTN60UQVoHdDDW1VV1e363zpb9euXWPr1q0cPHhwQM5vr+wgfHpybk94sL0mS+Nwciyio7P3ehu+kpISxo4dO6ArQcaMGcOoUaPYtWsXFy9eHLDXsTfyh0+fQktHZySre2xzphGnUKBQxJBMMjEKBYqoRGxYi+v0+tLshJYdun/yk5/0e1OzLY1Gw4svvoi3tze7d++mvr5+wF7LnsgfvtDNpEsSkmTLwHo0Sbc/RNYvMQVtQA0fPpyxY8cO+Ov4+fnx6quvcvHiRQ4cOADAuXPn2Ldvn3W4w9HIvqpBEFrdd999PP300/zzn/+koqKC1NRUFAoFTz75pENOjHe8dyTckb1/iJcsWYLRaOTNN99Eq9ViNBqprq6Wu1gDQtR8TqKv13yDxWw2c+TIEZKSkigrK8PLy4vm5maam5spLy+3Tuh2JCJ8gl0wmUzU1tZSVVXFrVu3cHFxQZIkDAYDFRUVchdvQNh3G0Tod/a6glytVvOrX/2KAwcOsG3bNqZNm4aLiwtVVVWUlZXJXbwBIWo+wa4EBQXxwgsv8Oijj3L06FE+/fRTKisr5S7WgBDhcyKSJNl9h0uroKAg/vM//5OVK1dSW1srd3EGhAifYNfGjRvX6wW7Q8XQ+DMo3DV77ul0ViJ8TkQE0L6I8DkZe+3tdEYifE5GhM9+iPA5CdHktD8ifE7C3d0ds9nc6+3dhYEjhhocWH5+PqWlpajVarKzs/Hw8CA3N5cffviB5uZmPD09rftyCoNPhM+B6fV6XnzxRYxGI8OHD2fdunX8+9//Zv/+/QBs2LBBhE9GotnpwObPn8+UKVPIzc2lsrISs9lMTU0NBQUFeHt7s3z5crmL6NREzefAfHx8eOKJJ/j++++pra3lrbfeAmDYsGE8/vjjvbrJpdD/RM3n4BYvXszcuXMxmUwoFAqam5sJCQnh5z//udxFc3oifA5uxIgRPPzww6hUKuteKA888ADh4eEyl0wQ4XMC0dHRLFiwgPr6eiZNmsSaNWvkLpKACJ9TGDZsGLGxsWg0Gh555JFe31nI/rRuIdmLLzvcYlKEz0nMmzePDRs2EBMTI3dR7p713h62s+nuV4NMIYl5R07BYrFQV1eHRqPB1dUZOrn1JEaF0XKj41hS0+3vTscifIID0pMWF0ZMMkAsqZL9BQ9Es1NwQO2Cp7PP4IEIn+Bg0uKibgcvkgRdEtH2dqHXhmh2Cg5DnxhFWMtFHgk6W+79IS9R8wkOoW3wYlPtP3ggaj7BAfwYPIhNlUiy14u8DkTNJwxtaXFtgqezPXhpcSji0gauXDYQ4ROGrrQ4FC29K0Qm6EiypXclLa5lxktMMrEy39pYhE8YmvSJRLUJXrqtF3nRSUiSjoTISGy+C/kAEeEThh59IlFh8WTQy+BZ6dBmTGeyzJ0yosNFGFraBI/YVKS+9K6kxaE4vKJvx/YjUfM5BMeY5d8jfRpxdxs8QJ+TSaTcbU5E+ByDg8zyv7M04sJiaJm8koDuLmotnTaD6XK3OQEkwUnopIRIJEAiMlZKlbs4vZQae7vsvfmK7epdpkqx2Mf7FzWfU2iZ5d8yHGafy2t6ktPbqh06NC1bm+YxJJNMjB00vUWHixNIi1O0n+VvBy0uQVzzObyhNMvf2Yiaz4ENtVn+zkbUfA5qKM7ydzai5nNAQ3WWv7MRNZ+j6essf2HQiZrPkXSY5d/7OY/CYBI1n6Poyyx/fSJRUXHERQ3xaWdDlAifI+jrLH+dloyMTCLel5AkqWWpDfG8Ie8aU6fhDLunOrYOs/x709RMO5xMbKokekJlImq+oeyuZvnrycnsuKBUhzYjFpkXeDsNEb4h625n+XexoFSfQ2ZkBPIvtnEOInxDVFrc7eABZMQTZssavrYbBqUdJjl2RbsJ1vqUgzDklhoNXSJ8Q9TdzvLvakGp3axzcxJinE8QZCJqPkGQiQifIMhEhE8QZCLCJwgyEeETBJmI8AmCTET4BEEmInyCIBMRPkGQiQifIMhEhE8QZCLCJwgyEeETBJmI8AmCTET4BEEm/w9qhAEBR2pw5QAAAABJRU5ErkJggg==;" vertex="1" parent="1">
                    <mxGeometry x="90" y="334" width="223" height="251" as="geometry"/>
                </mxCell>
                <mxCell id="56" value="" style="shape=image;verticalLabelPosition=bottom;labelBackgroundColor=default;verticalAlign=top;aspect=fixed;imageAspect=0;image=data:image/png,iVBORw0KGgoAAAANSUhEUgAAADQAAAAjCAYAAADbqynIAAAC3ElEQVRYhe2YsUvrXBiHn5RajaZWawYJFgWrhS4iLSodFCcdCq6Kk7s4OegmOCqd7Obe/8GhQnFQBAcLrYOWQilpUdGAxIZEcwc/ynfveJu05dJnz/s7D3nPew5HsG3b5h/C0+kFOE1PqNvpCTmJbds4PZM6JqSqKnt7exSLRUfrdkyoUChQqVQYGRlxtG7HhPL5PLFYjPHxcUfrdkTIMAwqlQqRSASPx9kldESoXq9jGAazs7OO1/Y6XvE/bm9vyWazPD8/EwqF2N7eRpZl4Gcg2LbN9PQ0X19fZDIZcrkcW1tbrK6utpTritDNzQ3n5+ckk0k0TePo6Ahd1zk4OEAQBB4fH5FlGb/fz/39PScnJxSLRSzLYmFhgaGhob/OdrzlGo0G6XSaubk5NjY2aDQamKZJrVZrnjn5fJ7JyUkAZFlmfn6eQCDAx8cHpmm2lO/4H9I0jVAoRDKZpFwuc3l5iSRJrK2t4fF4eH9/R1VV1tfXAVAUhVQqxff3N6IoIopiS/mOC42NjXF4eIgkSZyenlIqlVhZWWFpaQmAu7s7Pj8/iUQizW+CwSDhcJiBgQH6+/tbyne85bxeL5IkoWka19fXCIJAIpEgGAwCP0Kjo6O/nT+lUolCoUAikWg537WxXavVqFarBAIBZmZmADBNk4eHB+LxOIIgAD9nUjqdJhqNOiLk2tgWRRGfz4dhGM2N/vLywuvrK/F4HPgZIGdnZwDs7u46csi6JqQoCpubm6RSKTKZDIqiUK/XGR4exrZtrq6uyGazmKbJ/v5+syVbRXDzTcGyLHK5HBcXF7y9vaGqKpZlsbi4iN/vJxqNsry8zODgoGOZrgr9H13XOT4+Zmpqip2dHfr6+pr7yElca7k/MU0TTdOIxWL4fD7Xctp2OS2Xy+i6jqIorua0Tejp6YlwONy8oLpF2/ZQtVrFtm0mJiZczWmbULvoPWN1Oz2hbqcn1O30hLqdX5WBHCSFqnV9AAAAAElFTkSuQmCC;" vertex="1" parent="1">
                    <mxGeometry x="680" y="195" width="52" height="35" as="geometry"/>
                </mxCell>
                <mxCell id="58" value="" style="shape=image;verticalLabelPosition=bottom;labelBackgroundColor=default;verticalAlign=top;aspect=fixed;imageAspect=0;image=data:image/png,iVBORw0KGgoAAAANSUhEUgAAAEEAAAAkCAYAAADWzlesAAACq0lEQVRoge2ZPUvzUBhAT2I1foAfNEObKC4OYruIS+ciuLkJFnVy8A/4BxzESdwFNwVBnaSIiI7qIi4uikKxFWIRKhJJ0zZ93smCiOut8N4z3me4hzM8IYkhIsJ/jtlugb+AjoCOAOgIgI4A6AiAjgDoCICOAOgIgI4AQKydlwdBQLFYxDRNRkZGsCyrLR5ti3B8fMzp6Sm2beP7PmEYsrKyQjqdVi8jiqnX67K5uSnj4+Oyvr4u5XJZrq6uJJ1OSy6Xk7e3N9VKojRCFEWys7MjiURCFhYWxPd9ERGpVquSy+XEdV25uLhQqSQiIkoX493dHdvb23R2drK4uEhfXx8AURQRi8UIgoDHx0eVSoDip8PR0RH39/ekUikymUzr/OPjA8/zME2Tz89PlUqAwgilUonz83NqtRozMzMMDg62Zp7nUSqVsCyLgYEBVUotlD0d8vk8Dw8PDA0N4bounucBYBgGNzc3+L5Pd3c3ruuqUmqhJEIURdze3hKGIbZts7u7y/7+PgDNZpNisUij0cBxHIaHh1UofUNJhHK5zPPzMwCZTIbV1dXWrFKpsLGxQaFQYGxsDMdxVCh9Q0mESqXC6+srPT09TE5OMjEx0ZoVCgXe398xDIOpqalvu0IVShZjtVolDEN6e3sZHR39Nru+vubp6QnXdZmenlah8wMlESzLIhaL0dXVRTweb53XajXy+Ty+77O0tEQqlVKh8wMlERKJBMlkkjAM6ejoaJ0fHh5ycnLC7Owsy8vLmGZ7XmqV3BqPx5mfn6fZbHJ5eUkQBJydnbG1tUU2m2Vtba0tu+ALQ0TNb7hGo8He3h4HBwf09/dTr9fJZrPMzc1h27YKhV9RFuGLl5cXPM/DcRySyaTKq39FeYS/iP68ho4A6AiAjgDoCICOAMA/V6698GjYXtEAAAAASUVORK5CYII=;" vertex="1" parent="1">
                    <mxGeometry x="410" y="134" width="65" height="36" as="geometry"/>
                </mxCell>
                <mxCell id="59" value="" style="shape=image;verticalLabelPosition=bottom;labelBackgroundColor=default;verticalAlign=top;aspect=fixed;imageAspect=0;image=data:image/png,iVBORw0KGgoAAAANSUhEUgAAADEAAAAiCAYAAAD23jEpAAACx0lEQVRYhe2YPUgjURRGT4YEcVCDBiNaRCOoQSSClaCVBAQbFQRRsJXUprMR7LQVtBEstVBIIWJhIViopb8xQTJMRh1hFH8RJOrdageW3a0ys5tdcrp3Ge43Zx5v3uN5RET4x1H+9gs4QUmiWChJFAsliWLhj0hcXFyQzWZd6/9HJFZWVjg4OHCtv+sSuq6j6zrhcNi1DNcljo6OyOfzRCIR1zJclzg+PqatrY3q6mrXMlyReH5+5vT0lK2tLfb29nh7e+Pk5ITHx0c34vA62ez19ZXV1VV2d3epq6tDVVW+vr4IBAIsLy9zc3PD+Pg4g4ODKIqD308cIpVKyejoqESjUVlaWhLTNGVzc1MSiYS8v7+LaZoyOTkp4XBY1tbWnIoVERFHJHK5nAwNDUkoFJKNjQ27vri4KHNzc/Y4lUpJe3u7xGIxsSzLiWgREXFkThcWFtje3mZiYoLh4WEA8vk8uVyO1tZW+zm/309NTQ26rqNpmhPRgAMLO5PJsLOzQzAYJBaL4fF4AHh6euL+/v6H/UHTNEzTpLKykqqqqkKjbQqW0DQNy7IIhUI0Njba9fPzc7xeLw0NDXZtf3+f6+trurq6aG5uLjTapmAJVVVRFAWfz0dFRYVdPzw8xO/3EwgEADAMg2QySX19PSMjI/h8vkKjbQqWiEajdHd3k81mOTs7s+uZTIaOjg4UReH29pbZ2Vmurq6Ympqir6+v0Ngf8IgUftuRTqeZnp7Gsizi8Ti1tbXMz88zNjaGoiisr68DEI/HGRgYcHaPwCEJgLu7O5LJJOl0GsMwMAyD3t5evF4vkUiE/v5+gsGgE1E/4ZjEdz4/P5mZmaGsrIxEIkF5ebn9x3ILx89OHx8fPDw80NnZiaqqrguACxKXl5e8vLzQ0tLidOvf4soptqenh6amJjda/xLH18TfoHTbUSyUJIqF/0LiG38VOA18gd4kAAAAAElFTkSuQmCC;" vertex="1" parent="1">
                    <mxGeometry x="160" y="76" width="49" height="34" as="geometry"/>
                </mxCell>
                <mxCell id="61" value="Angulo de Rolageem&amp;nbsp;" style="text;html=1;strokeColor=none;fillColor=none;align=center;verticalAlign=middle;whiteSpace=wrap;rounded=0;" vertex="1" parent="1">
                    <mxGeometry x="149" y="134" width="60" height="30" as="geometry"/>
                </mxCell>
                <mxCell id="62" value="Angulo de&amp;nbsp; Arfagem" style="text;html=1;strokeColor=none;fillColor=none;align=center;verticalAlign=middle;whiteSpace=wrap;rounded=0;" vertex="1" parent="1">
                    <mxGeometry x="410" y="200" width="60" height="30" as="geometry"/>
                </mxCell>
                <mxCell id="63" value="Angulo de Guinada" style="text;html=1;strokeColor=none;fillColor=none;align=center;verticalAlign=middle;whiteSpace=wrap;rounded=0;" vertex="1" parent="1">
                    <mxGeometry x="676" y="245" width="60" height="30" as="geometry"/>
                </mxCell>
                <object placeholders="1" c4Type="Relationship" id="67">
                    <mxCell style="endArrow=blockThin;html=1;fontSize=10;fontColor=#404040;strokeWidth=1;endFill=1;strokeColor=#828282;elbow=vertical;metaEdit=1;endSize=14;startSize=14;jumpStyle=arc;jumpSize=16;rounded=0;edgeStyle=orthogonalEdgeStyle;" edge="1" parent="1">
                        <mxGeometry width="240" relative="1" as="geometry">
                            <mxPoint x="360" y="189.5" as="sourcePoint"/>
                            <mxPoint x="540" y="189.5" as="targetPoint"/>
                        </mxGeometry>
                    </mxCell>
                </object>
            </root>
        </mxGraphModel>
    </diagram>
</mxfile>